<svg xmlns="http://www.w3.org/2000/svg" xmlns:xlink="http://www.w3.org/1999/xlink" width="1708.272" height="1238.817" viewBox="0 0 1708.272 1238.817"><defs><style>.a{fill:none;}.b{fill:#4b46c1;}.c,.cr,.cs{fill:#fff;}.d{fill:#c7eeff;opacity:0.93;}.e{fill:#00c2ff;}.f{fill:#e3224f;}.g{fill:#da7fff;}.h{fill:url(#a);}.i{clip-path:url(#b);}.j{fill:url(#c);}.k{fill:url(#d);}.l{fill:#c0cef8;}.m{fill:url(#e);}.n{fill:#8395f0;}.o{fill:url(#h);}.p{fill:url(#i);}.q{fill:url(#j);}.r{fill:url(#k);}.s{fill:url(#l);}.t{fill:url(#m);}.u{fill:url(#n);}.v{fill:url(#o);}.w{fill:url(#p);}.x{fill:url(#q);}.y{fill:url(#r);}.z{fill:url(#s);}.aa{fill:url(#t);}.ab{fill:url(#u);}.ac{fill:url(#v);}.ad{fill:url(#w);}.ae{fill:url(#x);}.af{fill:url(#y);}.ag{fill:url(#z);}.ah{fill:url(#aa);}.ai{fill:url(#ab);}.aj{fill:#99b0f6;}.ak{fill:url(#ac);}.al{fill:url(#ad);}.am{fill:url(#ae);}.an{fill:url(#af);}.ao{fill:url(#ag);}.ap{fill:url(#ah);}.aq{fill:url(#ai);}.ar{fill:url(#aj);}.as{fill:url(#ak);}.at{fill:url(#al);}.au{fill:url(#am);}.av{fill:url(#an);}.aw{fill:url(#ao);}.ax{fill:url(#ap);}.ay{fill:url(#aq);}.az{fill:url(#au);}.ba{fill:url(#av);}.bb{fill:url(#aw);}.bc{fill:url(#ax);}.bd{fill:url(#ay);}.be{fill:url(#az);}.bf{fill:url(#bb);}.bg{fill:url(#bc);}.bh{fill:url(#bd);}.bi{fill:url(#bf);}.bj{fill:url(#bg);}.bk{fill:url(#bh);}.bl{fill:url(#bi);}.bm{fill:url(#bj);}.bn{fill:url(#bk);}.bo{fill:url(#bl);}.bp{fill:url(#bm);}.bq{fill:url(#bn);}.br{fill:url(#bo);}.bs{fill:url(#bp);}.bt{fill:url(#bq);}.bu{fill:url(#br);}.bv{fill:url(#bs);}.bw{fill:url(#bt);}.bx{fill:url(#bu);}.by{fill:url(#bv);}.bz{fill:url(#bw);}.ca{fill:url(#bx);}.cb{fill:url(#by);}.cc{fill:url(#bz);}.cd{fill:url(#ca);}.ce{fill:url(#cb);}.cf{fill:url(#cc);}.cg{fill:url(#cd);}.ch{fill:url(#ce);}.ci{fill:url(#cf);}.cj{fill:url(#cg);}.ck{fill:url(#ch);}.cl{fill:url(#ci);}.cm{fill:url(#cj);}.cn{fill:url(#ck);}.co{fill:url(#cl);}.cp{fill:url(#cm);}.cq{fill:url(#cn);}.cr{opacity:0.78;}.cs{opacity:0.61;}.ct{fill:url(#cr);}.cu{fill:url(#cs);}.cv{opacity:0.28;fill:url(#ct);}</style><linearGradient id="a" x1="3.289" y1="0.263" x2="-0.028" y2="0.545" gradientUnits="objectBoundingBox"><stop offset="0" stop-color="#0f005c"/><stop offset="1" stop-color="#1e168c"/></linearGradient><clipPath id="b"><path class="a" d="M3757.952,8202.609c-6.2-6.309-19.713-30.642-31.3-93.564-11.2-60.809-17.36-139.681-17.36-222.088s6.165-161.281,17.36-222.089c11.583-62.924,25.094-87.257,31.3-93.566,6.2,6.309,19.714,30.642,31.3,93.566,11.2,60.808,99.534,139.681,99.534,222.089s-88.338,161.279-99.534,222.088C3777.666,8171.968,3764.154,8196.3,3757.952,8202.609Z"/></clipPath><linearGradient id="c" x1="1.291" y1="0.458" x2="-1.117" y2="0.593" gradientUnits="objectBoundingBox"><stop offset="0" stop-color="#08003a"/><stop offset="1" stop-color="#0f0055"/></linearGradient><linearGradient id="d" x1="0.525" y1="0.934" x2="0.436" y2="-0.664" xlink:href="#a"/><linearGradient id="e" y1="0.5" x2="1" y2="0.5" gradientUnits="objectBoundingBox"><stop offset="0" stop-color="#dbe1fc"/><stop offset="1" stop-color="#e9edfb"/></linearGradient><linearGradient id="h" x1="0.531" y1="0.127" x2="0.328" y2="1.542" xlink:href="#c"/><linearGradient id="i" x1="0.457" y1="1.875" x2="-0.174" y2="23.661" gradientUnits="objectBoundingBox"><stop offset="0" stop-color="#4344dc"/><stop offset="1" stop-color="#5153fa"/></linearGradient><linearGradient id="j" x1="0.416" y1="2.737" x2="-0.105" y2="17.471" xlink:href="#i"/><linearGradient id="k" x1="0.379" y1="3.815" x2="-0.133" y2="18.536" xlink:href="#i"/><linearGradient id="l" x1="0.332" y1="5.008" x2="-0.21" y2="19.868" xlink:href="#i"/><linearGradient id="m" x1="0.464" y1="0.304" x2="0.798" y2="2.219" gradientUnits="objectBoundingBox"><stop offset="0" stop-color="#c24940"/><stop offset="1" stop-color="#cc605b"/></linearGradient><linearGradient id="n" x1="0.465" y1="0.307" x2="0.799" y2="2.221" xlink:href="#m"/><linearGradient id="o" x1="-0.148" y1="-7.863" x2="0.497" y2="0.523" gradientUnits="objectBoundingBox"><stop offset="0" stop-color="#e5908c"/><stop offset="1" stop-color="#eab1af"/></linearGradient><linearGradient id="p" x1="2.38" y1="-9.409" x2="1.412" y2="-4.306" xlink:href="#o"/><linearGradient id="q" x1="1.53" y1="-0.782" x2="0.63" y2="0.238" xlink:href="#o"/><linearGradient id="r" x1="0.223" y1="-2.726" x2="0.403" y2="-0.629" xlink:href="#o"/><linearGradient id="s" x1="0.208" y1="-4.681" x2="0.388" y2="-1.486" xlink:href="#o"/><linearGradient id="t" x1="0.244" y1="-1.478" x2="0.424" y2="-0.085" xlink:href="#o"/><linearGradient id="u" x1="0.195" y1="-9.321" x2="0.375" y2="-3.523" xlink:href="#o"/><linearGradient id="v" x1="0.235" y1="-1.864" x2="0.415" y2="-0.256" xlink:href="#o"/><linearGradient id="w" x1="0.225" y1="-2.466" x2="0.405" y2="-0.521" xlink:href="#o"/><linearGradient id="x" x1="0.214" y1="-3.49" x2="0.395" y2="-0.972" xlink:href="#o"/><linearGradient id="y" x1="0.256" y1="-1.068" x2="0.436" y2="0.091" xlink:href="#o"/><linearGradient id="z" x1="0.248" y1="-1.314" x2="0.428" y2="-0.018" xlink:href="#o"/><linearGradient id="aa" x1="0.235" y1="-1.82" x2="0.415" y2="-0.242" xlink:href="#o"/><linearGradient id="ab" x1="0.192" y1="-10.426" x2="0.372" y2="-4.036" xlink:href="#o"/><linearGradient id="ac" x1="78.764" y1="-0.858" x2="75.927" y2="5.53" xlink:href="#a"/><linearGradient id="ad" x1="310.986" y1="-0.229" x2="311.993" y2="-0.229" xlink:href="#o"/><linearGradient id="ae" x1="99.357" y1="-0.016" x2="96.34" y2="0.839" xlink:href="#a"/><linearGradient id="af" x1="195.602" y1="-2.642" x2="188.582" y2="4.922" xlink:href="#a"/><linearGradient id="ag" x1="362.53" y1="-0.031" x2="363.544" y2="-0.031" xlink:href="#o"/><linearGradient id="ah" x1="66.56" y1="-0.083" x2="64.542" y2="0.76" xlink:href="#a"/><linearGradient id="ai" x1="0.055" y1="0.893" x2="1.087" y2="-0.041" xlink:href="#o"/><linearGradient id="aj" x1="-2.687" y1="2.581" x2="0.38" y2="0.664" xlink:href="#o"/><linearGradient id="ak" x1="431.975" y1="0.041" x2="433.977" y2="-1.74" xlink:href="#o"/><linearGradient id="al" x1="47.812" y1="0.296" x2="48.814" y2="0.296" xlink:href="#o"/><linearGradient id="am" x1="0.608" y1="0.247" x2="0.113" y2="1.993" xlink:href="#o"/><linearGradient id="an" x1="0.278" y1="-0.211" x2="0.677" y2="0.953" xlink:href="#o"/><linearGradient id="ao" x1="-49.98" y1="27.667" x2="-49.776" y2="28.85" xlink:href="#c"/><linearGradient id="ap" x1="-0.315" y1="-2.854" x2="0.984" y2="2.744" xlink:href="#o"/><linearGradient id="aq" x1="0" y1="0.5" x2="1" y2="0.5" xlink:href="#a"/><linearGradient id="au" x1="1.73" y1="-0.13" x2="-1.657" y2="1.467" xlink:href="#i"/><linearGradient id="av" x1="1.289" y1="0.127" x2="-2.098" y2="1.724" xlink:href="#i"/><linearGradient id="aw" x1="0.5" y1="1.226" x2="0.5" y2="-1.676" xlink:href="#i"/><linearGradient id="ax" x1="0.772" y1="-6.693" x2="0.499" y2="0.843" xlink:href="#a"/><linearGradient id="ay" x1="0" y1="0.5" x2="1" y2="0.5" xlink:href="#o"/><linearGradient id="az" x1="0.734" y1="-1.867" x2="0.424" y2="1.1" xlink:href="#a"/><linearGradient id="bb" x1="0.636" y1="0.332" x2="-0.077" y2="1.382" xlink:href="#o"/><linearGradient id="bc" x1="0.311" y1="0.465" x2="0.881" y2="1.703" xlink:href="#i"/><linearGradient id="bd" x1="6.834" y1="-2.553" x2="-0.095" y2="0.787" xlink:href="#a"/><linearGradient id="bf" x1="0.941" y1="0.209" x2="0.275" y2="0.79" xlink:href="#o"/><linearGradient id="bg" x1="29.757" y1="10.457" x2="30.527" y2="11.351" xlink:href="#c"/><linearGradient id="bh" x1="3.142" y1="-1.398" x2="0.407" y2="0.623" xlink:href="#o"/><linearGradient id="bi" x1="-6.117" y1="-953.839" x2="-7.346" y2="-939.506" xlink:href="#c"/><linearGradient id="bj" x1="-51.973" y1="-100.963" x2="-54.599" y2="-99.664" xlink:href="#c"/><linearGradient id="bk" x1="-0.281" y1="0.954" x2="1.881" y2="-0.303" xlink:href="#i"/><linearGradient id="bl" x1="0.51" y1="0.128" x2="0.757" y2="-20.759" xlink:href="#i"/><linearGradient id="bm" x1="0.34" y1="4.039" x2="0.537" y2="-0.315" xlink:href="#i"/><linearGradient id="bn" x1="0.11" y1="0.604" x2="-0.7" y2="0.815" xlink:href="#o"/><linearGradient id="bo" x1="0.532" y1="0.006" x2="0.327" y2="3.202" xlink:href="#i"/><linearGradient id="bp" x1="1.129" y1="0.394" x2="0.414" y2="0.523" xlink:href="#o"/><linearGradient id="bq" x1="0.554" y1="-2.158" x2="0.395" y2="6.276" xlink:href="#i"/><linearGradient id="br" x1="0.619" y1="-0.242" x2="0.442" y2="0.664" xlink:href="#c"/><linearGradient id="bs" x1="0.224" y1="0.33" x2="1.02" y2="1.435" xlink:href="#o"/><linearGradient id="bt" x1="1.339" y1="0.115" x2="0.367" y2="0.522" xlink:href="#o"/><linearGradient id="bu" x1="-45.932" y1="100.114" x2="-46.268" y2="103.093" xlink:href="#c"/><linearGradient id="bv" x1="2.514" y1="-0.108" x2="-1.559" y2="1.212" xlink:href="#o"/><linearGradient id="bw" x1="0.623" y1="0.5" x2="1.623" y2="0.5" xlink:href="#o"/><linearGradient id="bx" x1="0.164" y1="19.266" x2="-0.575" y2="21.703" xlink:href="#a"/><linearGradient id="by" x1="0.733" y1="0.134" x2="0.333" y2="0.8" xlink:href="#a"/><linearGradient id="bz" x1="-216.364" y1="4.474" x2="-216.349" y2="8.118" xlink:href="#a"/><linearGradient id="ca" x1="-683.591" y1="1.164" x2="-683.853" y2="-0.58" xlink:href="#o"/><linearGradient id="cb" x1="-393.974" y1="3.704" x2="-393.947" y2="7.135" xlink:href="#a"/><linearGradient id="cc" x1="-773.026" y1="1.13" x2="-773.311" y2="-0.791" xlink:href="#o"/><linearGradient id="cd" x1="-87.698" y1="0.5" x2="-86.698" y2="0.5" xlink:href="#a"/><linearGradient id="ce" x1="-3346.87" y1="2.369" x2="-3345.489" y2="1.878" xlink:href="#i"/><linearGradient id="cf" x1="-191.715" y1="0.5" x2="-190.715" y2="0.5" xlink:href="#o"/><linearGradient id="cg" x1="-101.21" y1="0.5" x2="-100.21" y2="0.5" xlink:href="#o"/><linearGradient id="ch" x1="-379.986" y1="1.029" x2="-378.697" y2="0.222" xlink:href="#o"/><linearGradient id="ci" x1="-309.08" y1="0.175" x2="-310.397" y2="1.493" xlink:href="#o"/><linearGradient id="cj" x1="-196.924" y1="0.5" x2="-195.924" y2="0.5" xlink:href="#m"/><linearGradient id="ck" x1="-963.595" y1="2.763" x2="-960.333" y2="0.44" xlink:href="#o"/><linearGradient id="cl" x1="-122.278" y1="-0.331" x2="-123.151" y2="5.155" xlink:href="#o"/><linearGradient id="cm" x1="-77.153" y1="4.299" x2="-77.156" y2="2.583" xlink:href="#m"/><linearGradient id="cn" x1="-0.184" y1="1.294" x2="0.486" y2="0.516" xlink:href="#m"/><linearGradient id="cr" x1="0" y1="0.5" x2="1" y2="0.5" xlink:href="#i"/><linearGradient id="cs" y1="0.5" x2="1" y2="0.5" gradientUnits="objectBoundingBox"><stop offset="0" stop-color="#df6f63"/><stop offset="1" stop-color="#e5908c"/></linearGradient><linearGradient id="ct" x1="16.593" y1="26.678" x2="17.596" y2="26.678" xlink:href="#e"/></defs><g transform="translate(-2539.664 -7194.756)"><path class="b" d="M2799.137,7496.071a3.743,3.743,0,0,0-7.385.117c-3.117,21.024-9.064,47.858-20.2,65.376-20.66,32.51-58.19,150.9,44.854,209.92s128.382,90.265,127.616,203.608c-.7,103.592,5.537,324.656,6.614,361.927a5.552,5.552,0,0,0,5.559,5.389h0a5.557,5.557,0,0,0,5.562-5.538c.137-48.479.819-400.885-8.019-486.276C2939.738,7715.285,2825.639,7645.969,2799.137,7496.071Z"/><path class="c" d="M2800.9,7585.637a70.156,70.156,0,0,0-2.4,10.59c-.329,1.8-.5,3.629-.675,5.452-.237,1.815-.249,3.654-.331,5.48a96.851,96.851,0,0,0,1.723,21.785,103.4,103.4,0,0,0,17.562,39.646c1.072,1.477,2.05,3.023,3.2,4.448l3.571,4.177,3.564,4.18,3.829,4.016c5.189,5.293,10.681,10.335,16.31,15.277,11.258,9.881,23.071,19.389,34.207,29.838a215.388,215.388,0,0,1,30.409,34.425,201.222,201.222,0,0,1,11.9,19.744l2.548,5.166c.867,1.714,1.678,3.453,2.418,5.223l2.3,5.275,2.065,5.364c1.448,3.552,2.535,7.225,3.787,10.84,1.146,3.648,2.172,7.331,3.209,11.008.886,3.712,1.861,7.407,2.617,11.143.7,3.747,1.585,7.462,2.137,11.229a351.4,351.4,0,0,1,4.563,45.326,2.021,2.021,0,0,1-4.035.219c-2.235-29.909-7.1-59.829-18.071-87.524l-2.082-5.169-2.3-5.068c-.741-1.7-1.552-3.37-2.415-5.011l-2.536-4.947a194.522,194.522,0,0,0-11.754-18.836,217.307,217.307,0,0,0-13.962-17.276c-4.949-5.527-10.272-10.736-15.738-15.813-10.94-10.155-22.717-19.529-34.2-29.492-5.74-4.984-11.405-10.122-16.816-15.579l-4-4.155-3.763-4.449-3.756-4.452c-1.208-1.52-2.253-3.174-3.386-4.756-8.928-12.712-15.464-27.4-17.872-42.852l-.79-5.8c-.215-1.937-.251-3.893-.382-5.835a86.7,86.7,0,0,1,.251-11.666c.2-1.936.326-3.874.683-5.79.3-1.92.59-3.839,1.047-5.733a62.857,62.857,0,0,1,3.406-11.262,2.141,2.141,0,0,1,4.024,1.452Z"/><path class="b" d="M2761.61,7819.406a4.83,4.83,0,0,0-9.047.767c-10.609,39.451-32.51,157.21,64.3,212.941,117.3,67.532,120.134,36.988,134.762,155.892,12.589,102.339,16.885,164.572,17.837,179.925a3.989,3.989,0,0,0,3.989,3.742h0a3.988,3.988,0,0,0,4-4.123c-1.106-32.22-9.166-245.149-32.2-349.3C2904.287,7834.006,2808.374,7922.209,2761.61,7819.406Z"/><path class="c" d="M2763.943,7840.976a73.122,73.122,0,0,0,6.443,19.365,105.129,105.129,0,0,0,10.8,17.331,124.709,124.709,0,0,0,30.111,27.354c5.626,3.919,11.7,6.988,17.779,10.328l9.385,5.007c3.1,1.728,6.132,3.582,9.2,5.367a249.6,249.6,0,0,1,34.564,25,210.633,210.633,0,0,1,28.869,31.512l6.057,8.823c1.058,1.438,1.882,3.025,2.8,4.554l2.693,4.616,2.689,4.616,2.353,4.794c1.535,3.21,3.175,6.371,4.618,9.617,2.56,6.631,5.528,13.107,7.465,19.943,1.06,3.383,2.187,6.749,3.11,10.166l2.439,10.336,1.216,5.162.884,5.227,1.745,10.447c.637,3.472.805,7.008,1.2,10.509l1.016,10.517a1.381,1.381,0,0,1-2.739.352l-.015-.095c-1.085-6.9-1.968-13.823-3.2-20.675l-2.12-10.224-1.067-5.1-1.393-5.024-2.782-10.034c-1.027-3.312-2.289-6.546-3.377-9.833-2.04-6.633-5.09-12.867-7.719-19.255-1.476-3.121-3.143-6.151-4.7-9.229l-2.384-4.593-2.711-4.4-2.707-4.405c-.92-1.457-1.747-2.972-2.8-4.336l-6.043-8.378a212.277,212.277,0,0,0-28.243-30.026,256.939,256.939,0,0,0-33.631-24.056c-3-1.73-5.95-3.526-8.978-5.2l-9.183-4.865c-6.188-3.434-12.6-6.8-18.457-10.966a118.891,118.891,0,0,1-30.782-30.02,94.907,94.907,0,0,1-10.064-19.085,83.249,83.249,0,0,1-3.177-10.3,50.8,50.8,0,0,1-1.506-10.723,1.175,1.175,0,0,1,2.333-.24Z"/><path class="b" d="M2958.306,8372.673a4.03,4.03,0,0,0,3.985-4.7c-4.139-24.5-28.409-136.523-126.138-137.413-86.583-.79-139.124,42.462-157.438,60.745a6.035,6.035,0,0,0,2.639,10.091c11.823,3.25,31.5,11.16,44.127,29.488,19.041,27.639,68.4,23.3,99.151-14.69,30.465-37.636,106.358-60.178,129.714,53.225a4.053,4.053,0,0,0,3.96,3.251Z"/><path class="c" d="M2719.044,8278.633a148.4,148.4,0,0,1,21.391-14.972c3.761-2.2,7.594-4.279,11.513-6.2q5.848-2.94,11.935-5.4a181.213,181.213,0,0,1,24.942-8.215,168.932,168.932,0,0,1,26.013-4.2,134.358,134.358,0,0,1,26.4.332,124.28,124.28,0,0,1,25.809,5.5l3.144,1,3.067,1.216c2.036.829,4.1,1.583,6.1,2.476a118.772,118.772,0,0,1,11.667,6.043,137.568,137.568,0,0,1,21.241,15.151,1.217,1.217,0,0,1-1.455,1.947l-.059-.04c-7.1-4.742-14.162-9.5-21.865-13.05-3.739-1.981-7.725-3.411-11.583-5.088-1.965-.753-3.983-1.365-5.967-2.057l-2.985-1.006-3.049-.8a125.445,125.445,0,0,0-24.725-4.354c-2.091-.121-4.17-.394-6.267-.394l-6.283-.1c-4.19.148-8.378.255-12.554.689-16.73,1.47-33.144,5.809-49.014,11.582a278.138,278.138,0,0,0-45.95,21.88l-.052.031a1.22,1.22,0,0,1-1.416-1.975Z"/><path class="b" d="M3151.714,7243.629a4.791,4.791,0,0,0-8.967-2.117c-11.441,20.262-37.191,54.825-88.721,79.842-77.295,37.525-216.012,115.132-133.292,284.679,86,176.265,55.47,299.385,61.4,361.025,5.487,57.081,11.266,351.2,12.091,394.382a5.4,5.4,0,0,0,5.411,5.3h0a5.411,5.411,0,0,0,5.411-5.548c-1.2-47.631-9.707-387.219-9.863-441.586-.166-58.493-14.634-258.649,37.645-331.643C3083.4,7517.341,3159.761,7426.738,3151.714,7243.629Z"/><path class="c" d="M3122.138,7295.6c-5.38,7.554-11.192,14.727-17.243,21.718-6,7.034-12.344,13.765-18.8,20.394l-4.9,4.916-5,4.815c-3.313,3.233-6.719,6.367-10.154,9.472q-10.343,9.27-21.173,18c-3.624,2.888-7.349,5.65-11.02,8.482-3.7,2.793-7.508,5.445-11.258,8.174-7.5,5.27-14.772,10.522-21.643,16.373-13.767,11.573-25.8,25.072-34.83,40.447a134.407,134.407,0,0,0-11.21,24.241,165.733,165.733,0,0,0-6.537,26.037,193.4,193.4,0,0,0-2.544,26.912l-.1,6.788c-.03,2.264.1,4.531.138,6.8.051,4.535.414,9.065.68,13.6,2.849,36.312,11.719,72.119,22.416,107.21a.96.96,0,0,1-1.817.617q-9.656-25.882-16.761-52.7a358.758,358.758,0,0,1-10.31-54.549c-1.9-18.474-2.11-37.276.594-55.889a165.064,165.064,0,0,1,6.462-27.481,142.892,142.892,0,0,1,11.556-25.889c9.357-16.523,22.219-30.808,36.481-42.956,7.11-6.1,14.708-11.689,22.261-16.963,3.706-2.645,7.469-5.21,11.129-7.92,3.633-2.749,7.319-5.427,10.91-8.233,3.557-2.848,7.228-5.555,10.758-8.443,3.512-2.908,7.115-5.71,10.557-8.706,6.977-5.88,13.922-11.82,20.632-18.023,6.816-6.094,13.428-12.415,19.987-18.8,6.507-6.43,13.021-12.913,19.225-19.636l.016-.017a.961.961,0,0,1,1.489,1.208Z"/><path class="d" d="M3274.467,7861.586H3167.722a11.289,11.289,0,0,1-11.287-11.058l-9.619-468.4a11.29,11.29,0,0,1,12.1-11.492l116.363,8.4a11.289,11.289,0,0,1,10.477,11.259V7850.3A11.29,11.29,0,0,1,3274.467,7861.586Z"/><path class="e" d="M3173.051,7561.559l2.314,55.481a9.848,9.848,0,0,0,9.7,9.437l74.555,1.042a9.847,9.847,0,0,0,9.985-9.847v-55.448a9.848,9.848,0,0,0-9.71-9.847l-76.868-1.075A9.849,9.849,0,0,0,3173.051,7561.559Z"/><path class="e" d="M3259.9,7635.959l-73.381-1.026a9.848,9.848,0,0,0-9.977,10.258l2.313,55.48a9.848,9.848,0,0,0,9.7,9.437l71.068.993a9.847,9.847,0,0,0,9.985-9.847v-55.448A9.847,9.847,0,0,0,3259.9,7635.959Z"/><path class="e" d="M3269.607,7450.508v-41.754a9.848,9.848,0,0,0-8.578-9.766l-83.677-10.877a9.848,9.848,0,0,0-11.109,10.176l2.147,51.491a9.848,9.848,0,0,0,9.7,9.436l81.53,1.141A9.847,9.847,0,0,0,3269.607,7450.508Z"/><path class="e" d="M3169.564,7477.928l2.314,55.48a9.848,9.848,0,0,0,9.7,9.437l78.043,1.092a9.847,9.847,0,0,0,9.985-9.847v-55.448a9.848,9.848,0,0,0-9.71-9.847l-80.356-1.124A9.847,9.847,0,0,0,3169.564,7477.928Z"/><path class="e" d="M3180.026,7728.821l1.684,40.37a9.848,9.848,0,0,0,9.839,9.438h68.21a9.848,9.848,0,0,0,9.848-9.848v-39.393a9.847,9.847,0,0,0-9.71-9.847l-69.893-.977A9.849,9.849,0,0,0,3180.026,7728.821Z"/><path class="d" d="M3282.3,7855.411l-99.571,38.47a11.289,11.289,0,0,1-14.514-6.246l-177.782-433.46a11.289,11.289,0,0,1,7.144-15.08l111.57-34.1a11.29,11.29,0,0,1,13.831,6.728l165.784,429.094A11.289,11.289,0,0,1,3282.3,7855.411Z"/><path class="f" d="M3079.571,7612.1l22.153,50.919a9.847,9.847,0,0,0,12.451,5.306l69.92-25.9a9.847,9.847,0,0,0,5.766-12.784l-19.983-51.722a9.849,9.849,0,0,0-12.607-5.686l-72.09,26.7A9.848,9.848,0,0,0,3079.571,7612.1Z"/><path class="f" d="M3187.394,7650.2l-68.82,25.489a9.847,9.847,0,0,0-5.609,13.163l22.152,50.919a9.849,9.849,0,0,0,12.451,5.306l66.65-24.686a9.848,9.848,0,0,0,5.766-12.784L3200,7655.883A9.847,9.847,0,0,0,3187.394,7650.2Z"/><path class="f" d="M3129.616,7473.709l-15.048-38.948a9.848,9.848,0,0,0-11.522-6.018l-81.974,20.011a9.849,9.849,0,0,0-6.7,13.5l20.56,47.256a9.848,9.848,0,0,0,12.451,5.306l76.462-28.318A9.849,9.849,0,0,0,3129.616,7473.709Z"/><path class="f" d="M3046.178,7535.342l22.152,50.918a9.849,9.849,0,0,0,12.451,5.306l73.192-27.107a9.85,9.85,0,0,0,5.766-12.785l-19.984-51.721a9.848,9.848,0,0,0-12.606-5.686l-75.361,27.911A9.847,9.847,0,0,0,3046.178,7535.342Z"/><path class="f" d="M3146.358,7765.6l16.119,37.049a9.847,9.847,0,0,0,12.579,5.258l63.627-24.583a9.848,9.848,0,0,0,5.637-12.735l-14.2-36.746a9.848,9.848,0,0,0-12.607-5.685l-65.548,24.278A9.847,9.847,0,0,0,3146.358,7765.6Z"/><path class="d" d="M3288.517,7844.344l-68.208,82.111a11.289,11.289,0,0,1-15.718,1.616l-366.453-291.9a11.29,11.29,0,0,1-1.109-16.651l80.813-84.145a11.289,11.289,0,0,1,15.355-.864l353.849,293.934A11.291,11.291,0,0,1,3288.517,7844.344Z"/><path class="f" d="M2992.926,7730.645l44.156,33.671a9.85,9.85,0,0,0,13.459-1.432l48.44-56.684a9.849,9.849,0,0,0-1.194-13.974l-42.652-35.43a9.848,9.848,0,0,0-13.779,1.178l-49.945,58.442A9.849,9.849,0,0,0,2992.926,7730.645Z"/><path class="f" d="M3105.649,7711.381l-47.678,55.791a9.849,9.849,0,0,0,1.515,14.229l44.156,33.671a9.848,9.848,0,0,0,13.458-1.433l46.174-54.032a9.848,9.848,0,0,0-1.194-13.974l-42.652-35.43A9.849,9.849,0,0,0,3105.649,7711.381Z"/><path class="f" d="M2969.2,7585.412l-32.118-26.68a9.848,9.848,0,0,0-12.993.359l-61.835,57.416a9.849,9.849,0,0,0,.729,15.048l40.98,31.249a9.848,9.848,0,0,0,13.458-1.432l52.973-61.986A9.848,9.848,0,0,0,2969.2,7585.412Z"/><path class="f" d="M2926.367,7679.889l44.155,33.671a9.848,9.848,0,0,0,13.458-1.433l50.708-59.334a9.849,9.849,0,0,0-1.194-13.974l-42.652-35.43a9.848,9.848,0,0,0-13.779,1.178l-52.211,61.093A9.849,9.849,0,0,0,2926.367,7679.889Z"/><path class="f" d="M3126.046,7832.156l32.129,24.5a9.846,9.846,0,0,0,13.546-1.539l43.585-52.468a9.849,9.849,0,0,0-1.282-13.869l-30.3-25.171a9.847,9.847,0,0,0-13.779,1.178l-45.412,53.14A9.846,9.846,0,0,0,3126.046,7832.156Z"/><path class="g" d="M3870.624,8347.653a5.109,5.109,0,0,1-4.206-4.513c-2.5-24.468-14.278-159.811,23.025-231.669,41.113-79.2,107.432-152.891,75.031-341.571-18.355-106.891-6.834-165.164-.992-185.37a3.435,3.435,0,0,1,6.415-.52c16.834,36.062,87.062,187.925,98.01,234.911,12.456,53.455,20.688,157.435-63.534,204.942-82.9,46.761-157.748,165.516-127.829,317.786a5.115,5.115,0,0,1-5.92,6Z"/><path class="g" d="M3727.926,7196.807a3.238,3.238,0,0,0-6.217.719c-7.373,51.719-27.573,237.163,46.94,321.4,87.064,98.431,150.4,121.18,130.056,285.434-20.127,162.528-74.422,450.731-51.079,536.692a4.32,4.32,0,0,0,3.416,3.138h0a4.3,4.3,0,0,0,5.046-4.48c-1.466-25.354-6.412-135.042,10.633-234.994,19.423-113.893,103.362-397.482,64.318-618.745C3894.452,7278.627,3759.392,7273.982,3727.926,7196.807Z"/><path class="c" d="M3762.74,7285.779a270.936,270.936,0,0,1,20.987,18.278c6.733,6.38,13.2,13.039,19.478,19.875,6.311,6.809,12.29,13.914,18.217,21.067,2.946,3.591,5.734,7.305,8.61,10.955,2.826,3.687,5.55,7.452,8.33,11.177a490.68,490.68,0,0,1,29.888,47.075l3.413,6.086,3.234,6.182c2.109,4.147,4.388,8.207,6.332,12.437l6.012,12.6,5.561,12.806A482.065,482.065,0,0,1,3911.238,7517c1.331,4.46,2.314,9.018,3.487,13.519l1.69,6.771c.527,2.266.946,4.557,1.424,6.834.915,4.563,1.885,9.113,2.752,13.682l2.123,13.792c.786,4.585,1.21,9.22,1.685,13.845.429,4.629,1.064,9.237,1.322,13.877.484,9.284,1.117,18.554.905,27.846.261,18.57-1.416,37.092-3.7,55.443a1.509,1.509,0,0,1-3-.3l0-.039c2.8-36.638,1.608-73.494-4.654-109.515l-2.425-13.486-2.981-13.371c-.515-2.224-.971-4.461-1.534-6.673l-1.8-6.609c-1.243-4.393-2.294-8.837-3.692-13.184a480.683,480.683,0,0,0-18.7-51.443c-14.347-33.595-32.579-65.452-53.272-95.588-2.622-3.743-5.189-7.53-7.859-11.243-2.715-3.679-5.366-7.411-8.136-11.051q-8.2-11.008-16.887-21.666c-11.54-14.226-23.649-28.08-36.527-41.165l-.027-.027a.985.985,0,0,1,1.306-1.47Z"/><path class="g" d="M3888.8,8350.866a6.13,6.13,0,0,1-4.938-4.756c-4.626-21.711-22.219-125.761,49-189.582,74.27-66.558,128.524-70.954,143.023-112.639a2.655,2.655,0,0,1,5.111.238c8.3,37.359,28.8,166.468-69.973,216.241-98.011,49.387-113.428,72.052-115.069,85.3a6.1,6.1,0,0,1-7.15,5.2Z"/><path class="c" d="M4070.752,8079.148c-3.334,13.732-9.354,26.621-16.927,38.584a136.627,136.627,0,0,1-12.753,17.04,134.915,134.915,0,0,1-32.818,27.359,147.169,147.169,0,0,1-19.35,9.369l-5.037,1.884-4.766,1.731c-1.591.543-3.136,1.189-4.681,1.837s-3.115,1.243-4.614,1.988a121.66,121.66,0,0,0-17.522,9.686c-22.459,14.542-39.089,37.063-48.4,62.453-9.578,25.4-12.908,53.1-13.005,80.675a1.25,1.25,0,0,1-2.5.1c-.546-6.943-.927-13.919-.906-20.909.037-6.99.321-13.99.906-20.987a188.179,188.179,0,0,1,2.985-20.889,164.323,164.323,0,0,1,5.4-20.514,137.231,137.231,0,0,1,19.341-38.019,121.371,121.371,0,0,1,30.935-29.763,131.039,131.039,0,0,1,18.775-10.515c1.6-.8,3.276-1.449,4.921-2.155s3.3-1.4,4.985-1.986l9.723-3.539a136.689,136.689,0,0,0,34.882-19.619,152.459,152.459,0,0,0,15.039-13.436,166.881,166.881,0,0,0,13.183-15.427,161.33,161.33,0,0,0,20.236-35.5l.028-.07a1.017,1.017,0,0,1,1.932.621Z"/><path class="e" d="M2901.79,8017.343s112.376,296.372,147.879,358.025c41.213,71.566,161.575,25.963,155.585-33.933s-146.614-307.457-146.614-307.457Z"/><path class="e" d="M3053.63,7801.452l698.455-242.166-7.335,655.338L3034.542,8056.16Z"/><ellipse class="h" cx="68.621" cy="336.783" rx="68.621" ry="336.783" transform="translate(3684.124 7552.074)"/><path class="e" d="M3757.952,8202.609c-6.2-6.309-19.713-30.642-31.3-93.564-11.2-60.809-17.36-139.681-17.36-222.088s6.165-161.281,17.36-222.089c11.583-62.924,25.094-87.257,31.3-93.566,6.2,6.309,19.714,30.642,31.3,93.566,11.2,60.808,17.361,139.681,17.361,222.089s-6.165,161.279-17.361,222.088C3777.666,8171.968,3764.154,8196.3,3757.952,8202.609Z"/><g class="i"><path class="j" d="M3845.905,7884.448c0,57.223-30.826,103.612-91.838,103.612s-110.472-46.389-110.472-103.612,49.46-103.612,110.472-103.612S3845.905,7827.225,3845.905,7884.448Z"/></g><path class="k" d="M2940.98,7787.365c32.856-3.816,79.972-5.189,130.914,6.478-16.784,87.673-14.251,179.055,5.16,273.677H2933.371a46.563,46.563,0,0,1-46.015-39.267c-7.161-45.357-15.915-121.59-6.58-182.817A68.907,68.907,0,0,1,2940.98,7787.365Z"/><path class="l" d="M3027.212,7854.512H2915.265a10.209,10.209,0,0,1-8.572-15.756,2.88,2.88,0,0,1,4.834,3.13,4.45,4.45,0,0,0,3.738,6.869h111.947a4.455,4.455,0,0,0,4.451-4.451v-7.967a4.455,4.455,0,0,0-4.451-4.451H2914.434a2.879,2.879,0,0,1,0-5.757h112.778a10.221,10.221,0,0,1,10.209,10.208v7.967A10.221,10.221,0,0,1,3027.212,7854.512Z"/><path class="l" d="M3017.229,7904.091H2905.282a10.208,10.208,0,0,1-8.571-15.755,2.879,2.879,0,1,1,4.833,3.129,4.451,4.451,0,0,0,3.738,6.869h111.947a4.456,4.456,0,0,0,4.452-4.451v-7.965a4.458,4.458,0,0,0-4.452-4.453H2904.452a2.878,2.878,0,1,1,0-5.757h112.777a10.221,10.221,0,0,1,10.209,10.21v7.965A10.22,10.22,0,0,1,3017.229,7904.091Z"/><path class="m" d="M3155.12,7783.715a2.879,2.879,0,0,1-.872-5.623l529-168.338a2.879,2.879,0,0,1,1.747,5.487l-529,168.339A2.919,2.919,0,0,1,3155.12,7783.715Z"/><path class="m" d="M3083.584,7812.958a2.879,2.879,0,0,1-1.09-5.544l27.226-11.128a2.879,2.879,0,1,1,2.178,5.33l-27.226,11.128A2.862,2.862,0,0,1,3083.584,7812.958Z"/><path class="l" d="M3027.212,7962.156H2915.265a10.21,10.21,0,0,1-8.572-15.756,2.878,2.878,0,1,1,4.834,3.126,4.453,4.453,0,0,0,3.738,6.873h111.947a4.457,4.457,0,0,0,4.451-4.453v-7.965a4.455,4.455,0,0,0-4.451-4.451H2914.434a2.878,2.878,0,0,1,0-5.757h112.778a10.221,10.221,0,0,1,10.209,10.208v7.965A10.221,10.221,0,0,1,3027.212,7962.156Z"/><path class="l" d="M3037.693,8026.606H2925.746a10.21,10.21,0,0,1-8.571-15.756,2.878,2.878,0,1,1,4.833,3.126,4.454,4.454,0,0,0,3.738,6.873h111.947a4.456,4.456,0,0,0,4.452-4.451v-7.967a4.456,4.456,0,0,0-4.452-4.451H2924.916a2.878,2.878,0,0,1,0-5.757h112.777a10.22,10.22,0,0,1,10.209,10.208v7.967A10.221,10.221,0,0,1,3037.693,8026.606Z"/><path class="l" d="M3137.676,8377.02a73.086,73.086,0,0,1-15.574-1.69,72.035,72.035,0,0,1-50.835-41.176l-89.439-198.7a2.878,2.878,0,1,1,5.249-2.361l89.439,198.7a66.334,66.334,0,0,0,46.812,37.911,64.981,64.981,0,0,0,57.191-14.622q1.266-1.107,2.544-2.275a2.879,2.879,0,0,1,3.883,4.251q-1.326,1.211-2.637,2.357A70.462,70.462,0,0,1,3137.676,8377.02Z"/><path class="l" d="M2971.23,8107.773a2.881,2.881,0,0,1-2.627-1.7l-9.978-22.167a2.879,2.879,0,0,1,5.25-2.363l9.977,22.165a2.877,2.877,0,0,1-2.622,4.061Z"/><path class="m" d="M3829.551,7881.465a2.878,2.878,0,0,1-2.869-2.674c-1.989-28.038-11.707-48.942-28.884-62.13-29.7-22.806-72.09-14.969-72.515-14.884a2.878,2.878,0,1,1-1.089-5.652c1.837-.355,45.374-8.394,77.11,15.969,18.54,14.234,29.01,36.537,31.121,66.288a2.88,2.88,0,0,1-2.668,3.076C3829.687,7881.463,3829.619,7881.465,3829.551,7881.465Z"/><path class="n" d="M4065.01,7700.4a1.918,1.918,0,0,1-.729-3.693c2.352-.966,4.688-1.989,6.944-3.042a1.919,1.919,0,0,1,1.625,3.478c-2.312,1.08-4.7,2.127-7.113,3.113A1.865,1.865,0,0,1,4065.01,7700.4Z"/><path class="n" d="M4002,7712.471h-.015c-5.107-.043-10.268-.328-15.34-.848a1.919,1.919,0,0,1,.392-3.819c4.952.508,9.992.787,14.979.828a1.92,1.92,0,0,1-.016,3.839Zm24.61-1.65a1.919,1.919,0,0,1-.268-3.819c4.934-.7,9.893-1.649,14.742-2.813a1.919,1.919,0,1,1,.9,3.733c-4.965,1.19-10.044,2.159-15.095,2.881A2,2,0,0,1,4026.611,7710.821Zm-64.053-3.577a1.993,1.993,0,0,1-.486-.062c-4.93-1.289-9.864-2.832-14.667-4.584a1.919,1.919,0,0,1,1.316-3.606c4.69,1.713,9.508,3.218,14.322,4.476a1.919,1.919,0,0,1-.485,3.776ZM3925.6,7692.51a1.916,1.916,0,0,1-.923-.238c-4.466-2.455-8.874-5.156-13.1-8.025a1.919,1.919,0,1,1,2.155-3.175c4.129,2.8,8.435,5.439,12.8,7.838a1.919,1.919,0,0,1-.927,3.6Zm-32.25-23.288a1.908,1.908,0,0,1-1.3-.511c-3.743-3.471-7.365-7.159-10.767-10.962a1.92,1.92,0,0,1,2.862-2.56c3.322,3.714,6.859,7.316,10.515,10.707a1.919,1.919,0,0,1-1.3,3.326Zm-25.633-30.4a1.922,1.922,0,0,1-1.61-.872c-2.792-4.284-5.408-8.744-7.774-13.253a1.919,1.919,0,1,1,3.4-1.784c2.31,4.4,4.863,8.757,7.591,12.942a1.919,1.919,0,0,1-1.606,2.967Zm-17.44-35.748a1.921,1.921,0,0,1-1.816-1.3c-1.65-4.821-3.092-9.785-4.286-14.753a1.919,1.919,0,1,1,3.731-.9c1.166,4.85,2.574,9.7,4.187,14.4a1.921,1.921,0,0,1-1.816,2.542Zm-8.162-38.927a1.918,1.918,0,0,1-1.909-1.751l-.037-.429c-.371-4.524-.559-9.1-.559-13.6l0-1.336a1.921,1.921,0,0,1,1.919-1.9h.017a1.919,1.919,0,0,1,1.9,1.936l-.005,1.3c0,4.4.183,8.864.546,13.283l.035.407a1.919,1.919,0,0,1-1.744,2.08A1.666,1.666,0,0,1,3842.117,7564.146Zm1.5-39.757a1.923,1.923,0,0,1-1.9-2.227c.82-5.047,1.888-10.1,3.177-15.039a1.919,1.919,0,1,1,3.713.971c-1.257,4.816-2.3,9.756-3.1,14.683A1.919,1.919,0,0,1,3843.616,7524.389Z"/><path class="n" d="M3854.833,7486.118a1.918,1.918,0,0,1-1.76-2.682c1.014-2.341,2.11-4.711,3.257-7.046a1.919,1.919,0,1,1,3.445,1.69c-1.12,2.283-2.19,4.6-3.18,6.882A1.922,1.922,0,0,1,3854.833,7486.118Z"/><path class="n" d="M3947.7,7398.351a1.92,1.92,0,0,1-.66-3.722c2.422-.887,4.9-1.726,7.352-2.5a1.919,1.919,0,1,1,1.147,3.662c-2.4.752-4.814,1.571-7.18,2.438A1.923,1.923,0,0,1,3947.7,7398.351Z"/><path class="n" d="M4158.149,7599a1.947,1.947,0,0,1-.577-.088,1.919,1.919,0,0,1-1.255-2.406c1.471-4.68,2.738-9.483,3.768-14.277a1.919,1.919,0,1,1,3.752.806c-1.054,4.91-2.352,9.83-3.858,14.622A1.92,1.92,0,0,1,4158.149,7599Zm7.1-38.5c-.039,0-.078,0-.118,0a1.92,1.92,0,0,1-1.8-2.032c.2-3.219.295-6.495.295-9.739q0-2.5-.078-5.027a1.919,1.919,0,0,1,3.836-.12q.081,2.581.081,5.147c0,3.321-.1,6.675-.3,9.972A1.919,1.919,0,0,1,4165.254,7560.5Zm-2.324-39.073a1.921,1.921,0,0,1-1.887-1.578c-.876-4.835-1.984-9.678-3.295-14.39a1.918,1.918,0,1,1,3.7-1.027c1.343,4.824,2.478,9.781,3.375,14.735a1.92,1.92,0,0,1-1.547,2.23A2,2,0,0,1,4162.93,7521.428Zm-11.579-37.379a1.921,1.921,0,0,1-1.751-1.132c-2.006-4.466-4.25-8.9-6.67-13.169a1.92,1.92,0,0,1,3.34-1.893c2.478,4.378,4.777,8.915,6.831,13.488a1.92,1.92,0,0,1-1.75,2.706Zm-20.251-33.477a1.914,1.914,0,0,1-1.511-.734c-3.026-3.857-6.269-7.621-9.638-11.185a1.918,1.918,0,1,1,2.789-2.635c3.449,3.649,6.77,7.5,9.869,11.451a1.917,1.917,0,0,1-1.509,3.1Zm-27.69-27.66a1.911,1.911,0,0,1-1.182-.408c-3.856-3.021-7.9-5.9-12.029-8.563a1.92,1.92,0,0,1,2.08-3.227c4.224,2.725,8.368,5.675,12.316,8.769a1.918,1.918,0,0,1-1.185,3.429Zm-33.494-20.255a1.923,1.923,0,0,1-.787-.168c-4.465-2.013-9.083-3.84-13.728-5.431a1.92,1.92,0,0,1,1.244-3.632c4.758,1.632,9.488,3.5,14.06,5.562a1.92,1.92,0,0,1-.789,3.669Zm-37.385-11.615a2.022,2.022,0,0,1-.344-.03c-4.824-.876-9.747-1.533-14.631-1.957a1.917,1.917,0,0,1-1.745-2.076,1.9,1.9,0,0,1,2.077-1.747c5,.433,10.043,1.108,14.983,2a1.92,1.92,0,0,1-.34,3.809Zm-53.93-.653a1.919,1.919,0,0,1-.291-3.815c3.913-.606,7.887-1.074,11.813-1.4q1.608-.133,3.218-.233a1.919,1.919,0,1,1,.238,3.831q-1.568.1-3.142.227c-3.836.314-7.718.774-11.54,1.364A2.042,2.042,0,0,1,3978.6,7390.389Z"/><path class="n" d="M4145.561,7628.44a1.92,1.92,0,0,1-1.68-2.845c1.217-2.209,2.393-4.473,3.5-6.724a1.92,1.92,0,0,1,3.447,1.69c-1.13,2.306-2.334,4.622-3.581,6.886A1.916,1.916,0,0,1,4145.561,7628.44Z"/><path class="b" d="M4104.212,7621.717a1.943,1.943,0,0,0,.261-2.242l-11.416-20.729a103.1,103.1,0,0,0,11.232-31.454l21.944-8.819a1.945,1.945,0,0,0,1.217-1.9l-1.42-28.351a1.946,1.946,0,0,0-1.4-1.77l-22.716-6.581a103.07,103.07,0,0,0-14.32-30.173l9.288-21.767a1.945,1.945,0,0,0-.484-2.205l-21.052-19.042a1.941,1.941,0,0,0-2.242-.261l-20.729,11.416a103.064,103.064,0,0,0-31.453-11.232l-8.819-21.944a1.945,1.945,0,0,0-1.9-1.217l-28.35,1.42a1.945,1.945,0,0,0-1.771,1.4l-6.581,22.716a103.1,103.1,0,0,0-30.173,14.319l-21.767-9.287a1.944,1.944,0,0,0-2.2.484l-19.043,21.051a1.945,1.945,0,0,0-.261,2.243l11.416,20.729a103.081,103.081,0,0,0-11.232,31.453l-21.944,8.819a1.945,1.945,0,0,0-1.217,1.9l1.421,28.351a1.942,1.942,0,0,0,1.4,1.77l22.716,6.582a103.055,103.055,0,0,0,14.32,30.173l-9.287,21.766a1.944,1.944,0,0,0,.484,2.205l21.051,19.043a1.945,1.945,0,0,0,2.242.261l20.729-11.416a103.11,103.11,0,0,0,31.454,11.232l8.819,21.944a1.942,1.942,0,0,0,1.9,1.216l28.35-1.42a1.945,1.945,0,0,0,1.771-1.4l6.581-22.715a103.1,103.1,0,0,0,30.173-14.32l21.767,9.287a1.944,1.944,0,0,0,2.2-.484Z"/><path class="l" d="M4002.278,7576.721a28.094,28.094,0,1,1,8.211-1.235A28.136,28.136,0,0,1,4002.278,7576.721Zm.014-50.424a22.356,22.356,0,1,0,10.44,2.616A22.394,22.394,0,0,0,4002.292,7526.3Z"/><path class="l" d="M4001.7,7619.641a71.377,71.377,0,0,1-71.2-67.8q-.092-1.813-.091-3.612a71.374,71.374,0,0,1,142.659-3.532h0a71.8,71.8,0,0,1-.845,15.17l-5.682-.929a65.919,65.919,0,0,0,.86-10.634q0-1.659-.083-3.319a65.617,65.617,0,0,0-131.151,3.248q0,1.653.083,3.319a65.634,65.634,0,0,0,102,51.279l3.2,4.783a71.274,71.274,0,0,1-36.1,11.937Q4003.521,7619.642,4001.7,7619.641Z"/><path class="b" d="M3909.514,7434.521l-7.3-11.071a57.752,57.752,0,0,0,4.876-18.066l11.865-5.9a1.089,1.089,0,0,0,.595-1.116L3917.5,7382.6a1.091,1.091,0,0,0-.861-.927L3903.661,7379a57.759,57.759,0,0,0-9.338-16.216l4.22-12.57a1.089,1.089,0,0,0-.368-1.21l-12.6-9.7a1.088,1.088,0,0,0-1.264-.046l-11.071,7.3a57.74,57.74,0,0,0-18.066-4.876l-5.9-11.865a1.089,1.089,0,0,0-1.116-.595l-15.771,2.052a1.091,1.091,0,0,0-.927.861l-2.667,12.98a57.741,57.741,0,0,0-16.216,9.338L3800,7350.23a1.09,1.09,0,0,0-1.21.368l-9.7,12.6a1.088,1.088,0,0,0-.046,1.263l7.3,11.071a57.751,57.751,0,0,0-4.877,18.067l-11.864,5.9a1.089,1.089,0,0,0-.6,1.116l2.053,15.771a1.088,1.088,0,0,0,.861.927l12.979,2.667a57.745,57.745,0,0,0,9.338,16.216l-4.22,12.57a1.088,1.088,0,0,0,.368,1.21l12.6,9.7a1.09,1.09,0,0,0,1.264.046l11.071-7.3a57.791,57.791,0,0,0,18.066,4.876l5.9,11.865a1.089,1.089,0,0,0,1.116.6l15.772-2.052a1.091,1.091,0,0,0,.926-.861l2.667-12.98a57.762,57.762,0,0,0,16.217-9.338l12.569,4.221a1.091,1.091,0,0,0,1.211-.369l9.7-12.6A1.088,1.088,0,0,0,3909.514,7434.521Z"/><path class="l" d="M3849.275,7416.5a17.022,17.022,0,1,1,6.259-1.2A16.954,16.954,0,0,1,3849.275,7416.5Zm-.008-28.254a11.244,11.244,0,1,0,10.468,7.109A11.205,11.205,0,0,0,3849.267,7388.249Z"/><path class="n" d="M3900.273,7469.753a1.919,1.919,0,0,1-1.149-3.457c1.994-1.486,3.946-3.085,5.8-4.751a1.919,1.919,0,0,1,2.564,2.856c-1.943,1.745-3.986,3.417-6.073,4.972A1.911,1.911,0,0,1,3900.273,7469.753Z"/><path class="n" d="M3861.751,7485.769a1.919,1.919,0,0,1-.28-3.817,83.672,83.672,0,0,0,15.209-3.76,1.92,1.92,0,0,1,1.265,3.625,87.558,87.558,0,0,1-15.908,3.932A2.1,2.1,0,0,1,3861.751,7485.769Zm-25.97-.161a1.9,1.9,0,0,1-.308-.024,87.846,87.846,0,0,1-15.86-4.112,1.919,1.919,0,0,1,1.306-3.609,84.06,84.06,0,0,0,15.165,3.931,1.919,1.919,0,0,1-.3,3.814Zm-38.319-16.464a1.907,1.907,0,0,1-1.163-.393,87.143,87.143,0,0,1-12.026-11.119,1.919,1.919,0,0,1,2.86-2.56,83.2,83.2,0,0,0,11.5,10.628,1.919,1.919,0,0,1-1.167,3.444Zm-25.908-32.652a1.918,1.918,0,0,1-1.751-1.132q-.844-1.872-1.607-3.8a87.856,87.856,0,0,1-3.707-11.693,1.919,1.919,0,0,1,3.731-.9,84.133,84.133,0,0,0,3.545,11.181q.731,1.849,1.538,3.641a1.918,1.918,0,0,1-1.749,2.706Z"/><path class="n" d="M3764.2,7395.356c-.046,0-.093,0-.14-.006a1.917,1.917,0,0,1-1.776-2.05c.186-2.6.494-5.223.915-7.793a1.919,1.919,0,1,1,3.788.619c-.4,2.457-.7,4.963-.875,7.448A1.92,1.92,0,0,1,3764.2,7395.356Z"/><path class="n" d="M3797.888,7333.338a1.919,1.919,0,0,1-1.157-3.452c2.089-1.572,4.267-3.064,6.474-4.434a1.919,1.919,0,1,1,2.024,3.261c-2.11,1.31-4.192,2.736-6.189,4.239A1.905,1.905,0,0,1,3797.888,7333.338Z"/><path class="n" d="M3933.094,7385.783a1.918,1.918,0,0,1-1.884-1.565,83.847,83.847,0,0,0-4.226-14.815,1.919,1.919,0,1,1,3.58-1.386,87.743,87.743,0,0,1,4.418,15.493,1.918,1.918,0,0,1-1.533,2.239A1.875,1.875,0,0,1,3933.094,7385.783Zm-16.984-37.336a1.918,1.918,0,0,1-1.506-.727,83.121,83.121,0,0,0-10.634-11.128,1.919,1.919,0,0,1,2.517-2.9,87.1,87.1,0,0,1,11.127,11.642,1.919,1.919,0,0,1-1.5,3.111Zm-32.458-25.056a1.931,1.931,0,0,1-.773-.163,84.111,84.111,0,0,0-14.608-4.892,1.919,1.919,0,0,1,.879-3.737,87.878,87.878,0,0,1,15.277,5.117,1.919,1.919,0,0,1-.775,3.675Zm-55.951-4.479a1.919,1.919,0,0,1-.487-3.775,86.941,86.941,0,0,1,15.9-2.633,1.918,1.918,0,1,1,.274,3.827,83.384,83.384,0,0,0-15.2,2.517A1.928,1.928,0,0,1,3827.7,7318.912Z"/><path class="n" d="M3932.708,7418.964a1.857,1.857,0,0,1-.4-.042,1.919,1.919,0,0,1-1.482-2.275c.516-2.44.926-4.929,1.219-7.4a1.919,1.919,0,1,1,3.812.454c-.307,2.582-.736,5.187-1.275,7.74A1.92,1.92,0,0,1,3932.708,7418.964Z"/><path class="l" d="M3848.91,7440.572a41.271,41.271,0,0,1-40.824-35.939,41.663,41.663,0,0,1-.353-5.409,41.259,41.259,0,0,1,82.173-5.236,41.508,41.508,0,0,1,.255,8.146q-.021.316-.047.63l-5.737-.476q.122-1.46.121-2.931a36.1,36.1,0,0,0-.3-4.627h0a36.37,36.37,0,0,0-.782-4.123l-.007-.028v0l-.009-.039h0a35.505,35.505,0,0,0-69.907,8.7,36.2,36.2,0,0,0,.3,4.655A35.508,35.508,0,0,0,3871,7427.172l3.572,4.513a41.2,41.2,0,0,1-20.255,8.535A41.82,41.82,0,0,1,3848.91,7440.572Z"/><path class="o" d="M3546.48,7749.3c-.169-2.095-2.309-3.909-5.934-5.364,3.939-2.172,6.118-4.5,5.934-6.784-.557-6.909-22.439-10.783-48.874-8.651s-47.415,9.46-46.858,16.37c.169,2.1,2.31,3.91,5.935,5.364-3.939,2.173-6.119,4.5-5.935,6.784.169,2.1,2.31,3.91,5.935,5.364-3.939,2.173-6.119,4.5-5.935,6.784.169,2.1,2.31,3.91,5.935,5.364-3.939,2.173-6.119,4.5-5.935,6.785.247,3.055,4.67,5.516,11.807,7.127a61.36,61.36,0,0,0,.182,7.466c1.034,12.733,15.355,22.716,34.3,22.716s35.337-13.612,35.523-26.385a64.265,64.265,0,0,0-.371-8.334c9.064-3.026,14.583-6.723,14.294-10.309-.169-2.1-2.309-3.91-5.934-5.364,3.939-2.173,6.118-4.5,5.934-6.784-.169-2.1-2.309-3.91-5.934-5.364C3544.485,7753.914,3546.664,7751.586,3546.48,7749.3Z"/><path class="p" d="M3485.373,7791.195a114.288,114.288,0,0,1-20.97-1.714.635.635,0,1,1,.239-1.247c9.287,1.778,21.692,2.17,34.93,1.1a150.13,150.13,0,0,0,29.294-5.052.635.635,0,1,1,.356,1.219,151.372,151.372,0,0,1-29.548,5.1C3494.757,7791,3489.952,7791.195,3485.373,7791.195Z"/><path class="q" d="M3485.5,7779.036c-10.2,0-19.316-.96-25.746-2.791a.635.635,0,1,1,.348-1.221c9.162,2.609,23.915,3.418,39.465,2.164,15.382-1.24,29.727-4.361,38.373-8.349a.635.635,0,1,1,.532,1.153c-8.775,4.047-23.281,7.21-38.8,8.462C3494.83,7778.844,3490.059,7779.036,3485.5,7779.036Z"/><path class="r" d="M3485.375,7766.9c-11.014,0-20.652-1.127-27.14-3.266a.635.635,0,0,1,.4-1.206c9.028,2.976,24.332,3.954,40.939,2.615,15.38-1.24,29.726-4.361,38.373-8.349a.635.635,0,1,1,.532,1.153c-8.776,4.047-23.282,7.211-38.8,8.462C3494.755,7766.7,3489.946,7766.9,3485.375,7766.9Z"/><path class="s" d="M3485.46,7754.743a109.516,109.516,0,0,1-22.861-2.079.635.635,0,0,1,.275-1.24c9.29,2.064,22.666,2.6,36.7,1.468,15.243-1.23,29.515-4.317,38.177-8.26a.635.635,0,1,1,.526,1.156c-8.788,4-23.219,7.129-38.6,8.369C3494.814,7754.549,3490.028,7754.743,3485.46,7754.743Z"/><path class="f" d="M3433,7687.981A89.4,89.4,0,0,0,3417,7656.724c-15.737-19.834-41.411-60.171-44.571-115.223-4.6-80.077,66.422-120.167,131.227-114.725s128.752,53.7,121.752,128.191c-4.307,45.837-29.963,80.6-49.065,100.572a106.077,106.077,0,0,0-25.466,45.119c-5.732,20.7-19.375,46.491-51.8,48.063C3457.113,7750.756,3439.687,7711.646,3433,7687.981Z"/><path class="t" d="M3509.79,7732.753l22.676-147.483c.468-3.047,1.968-5.093,3.349-4.571s2.121,3.417,1.652,6.464c-.012.081-.029.181-.043.261l-25.829,146.113c-.194,1.1-.752,1.793-1.246,1.55S3509.627,7733.816,3509.79,7732.753Z"/><path class="u" d="M3486.252,7733.924l-22.675-147.483c-.469-3.047-1.968-5.093-3.35-4.57s-2.121,3.416-1.652,6.463c.012.081.029.181.043.262l25.829,146.112c.194,1.1.752,1.793,1.247,1.55C3486.172,7736.022,3486.415,7734.988,3486.252,7733.924Z"/><path class="v" d="M3532.3,7572.607a2.379,2.379,0,0,0-2.977-.773l-12.626,5.9-4.383-12.488a2.675,2.675,0,0,0-1.535-1.545,3.12,3.12,0,0,0-3.88,1.2l-.022.04L3496.5,7583.87l-9.635-26.952-.016-.045a3.083,3.083,0,0,0-1.459-1.644,3.781,3.781,0,0,0-4.767.939l-14.517,19.984a1.751,1.751,0,0,0,.512,2.522,2.433,2.433,0,0,0,3.087-.336l12.781-14.257,11.508,25.638.008.02a2.039,2.039,0,0,0,1.015.994,2.406,2.406,0,0,0,3.011-.779l11.1-17.821,4.18,9.013.037.081a1.877,1.877,0,0,0,.1.191,2.375,2.375,0,0,0,2.974.772l14.987-7A1.783,1.783,0,0,0,3532.3,7572.607Z"/><path class="w" d="M3576.833,7636.527a2.879,2.879,0,0,1-2.31-4.595,167.331,167.331,0,0,0,10.519-15.977,2.878,2.878,0,1,1,4.985,2.879,173.329,173.329,0,0,1-10.881,16.531A2.874,2.874,0,0,1,3576.833,7636.527Z"/><path class="x" d="M3595.486,7604.512a2.879,2.879,0,0,1-2.638-4.026c23.961-55.18,3.3-101.5,3.085-101.958a2.878,2.878,0,0,1,5.233-2.4c.908,1.979,21.937,49.134-3.037,106.65A2.879,2.879,0,0,1,3595.486,7604.512Z"/><path class="f" d="M3812.268,7951.116a4.333,4.333,0,0,1,.832-8.394c20.669-2.68,50.964-10.773,60.885-35.025,15.566-38.051-16.678-184.762,131.45-211.012,136.64-24.215,212.743,19.025,211.013,145.287C4214.772,7964.358,4018.088,8021.742,3812.268,7951.116Z"/><rect class="y" width="13.254" height="103.71" transform="translate(3914.554 7815.574)"/><rect class="z" width="13.254" height="68.066" transform="translate(3936.7 7851.218)"/><rect class="aa" width="13.254" height="156.157" transform="translate(3958.846 7763.127)"/><rect class="ab" width="13.254" height="37.515" transform="translate(3980.992 7881.77)"/><rect class="ac" width="13.254" height="135.28" transform="translate(4003.138 7784.005)"/><rect class="ad" width="13.254" height="111.857" transform="translate(4025.284 7807.427)"/><rect class="ae" width="13.254" height="86.397" transform="translate(4047.43 7832.887)"/><rect class="af" width="13.254" height="187.727" transform="translate(4069.575 7731.558)"/><rect class="ag" width="13.254" height="167.868" transform="translate(4091.722 7751.416)"/><rect class="ah" width="13.254" height="137.826" transform="translate(4113.868 7781.458)"/><rect class="ai" width="13.254" height="34.033" transform="translate(4136.014 7885.251)"/><path class="n" d="M4192.863,7417.466l.393,8.243a1.253,1.253,0,1,1-2.5.12v-.015l-.393-8.213v-.016a1.253,1.253,0,0,1,2.5-.12Z"/><path class="n" d="M4193.548,7433.959l.191,8.249a1.251,1.251,0,1,1-2.5.058v-.015l-.192-8.219v-.015a1.252,1.252,0,1,1,2.5-.058Z"/><path class="n" d="M4193.829,7450.461l-.012,8.256a1.25,1.25,0,1,1-2.5,0v-.015l.01-8.225v-.015a1.251,1.251,0,0,1,2.5,0Z"/><path class="n" d="M4193.7,7466.972l-.218,8.249a1.248,1.248,0,0,1-2.5-.066v-.016l.216-8.217v-.016a1.249,1.249,0,0,1,2.5.065Z"/><path class="n" d="M4193.162,7483.468l-.428,8.244a1.247,1.247,0,0,1-2.491-.13v-.016l.425-8.211v-.017a1.248,1.248,0,0,1,2.492.13Z"/><path class="n" d="M4192.2,7499.95l-.646,8.232a1.245,1.245,0,1,1-2.483-.2v-.017l.641-8.2,0-.017a1.247,1.247,0,0,1,2.485.2Z"/><path class="n" d="M4190.8,7516.4l-.869,8.213a1.244,1.244,0,1,1-2.475-.263l0-.016.864-8.179,0-.016a1.245,1.245,0,1,1,2.476.261Z"/><path class="n" d="M4188.943,7532.81l-1.1,8.181a1.243,1.243,0,1,1-2.463-.332l0-.017,1.094-8.145,0-.018a1.243,1.243,0,0,1,2.464.331Z"/><path class="n" d="M4186.624,7549.155l-1.341,8.147a1.241,1.241,0,1,1-2.449-.4l0-.018,1.333-8.11,0-.018a1.242,1.242,0,0,1,2.451.4Z"/><path class="n" d="M4183.819,7565.428l-1.59,8.1a1.239,1.239,0,0,1-2.432-.478l0-.019,1.581-8.065,0-.019a1.24,1.24,0,0,1,2.434.477Z"/><path class="n" d="M4180.511,7581.608l-1.849,8.049a1.238,1.238,0,1,1-2.413-.554l0-.019,1.839-8.011,0-.019a1.239,1.239,0,0,1,2.415.554Z"/><path class="n" d="M4176.679,7597.675l-2.118,7.984a1.236,1.236,0,1,1-2.39-.634l0-.02,2.106-7.944.006-.02a1.237,1.237,0,1,1,2.391.634Z"/><path class="n" d="M4172.305,7613.606l-2.4,7.906a1.235,1.235,0,0,1-2.364-.717l.007-.021,2.383-7.864.006-.021a1.236,1.236,0,0,1,2.366.717Z"/><path class="n" d="M4167.367,7629.374l-2.687,7.813a1.234,1.234,0,0,1-2.333-.8l.008-.022,2.67-7.77.007-.022a1.234,1.234,0,0,1,2.335.8Z"/><path class="n" d="M4161.846,7644.949l-2.985,7.706a1.232,1.232,0,0,1-2.3-.89l.008-.023,2.966-7.661.009-.022a1.233,1.233,0,1,1,2.3.89Z"/><path class="n" d="M4155.724,7660.3l-3.291,7.581a1.231,1.231,0,0,1-2.258-.98l.011-.023,3.269-7.535.01-.023a1.232,1.232,0,0,1,2.26.98Z"/><path class="n" d="M4148.985,7675.393l-3.6,7.438a1.229,1.229,0,1,1-2.212-1.072l.011-.024,3.582-7.391.011-.024a1.23,1.23,0,0,1,2.214,1.073Z"/><path class="n" d="M4141.615,7690.189l-3.925,7.275a1.228,1.228,0,0,1-2.161-1.165l.013-.024,3.9-7.228.013-.024a1.228,1.228,0,1,1,2.162,1.166Z"/><path class="n" d="M4133.6,7704.651l-4.249,7.092a1.226,1.226,0,0,1-2.1-1.26l.014-.024,4.219-7.045.014-.024a1.227,1.227,0,1,1,2.1,1.261Z"/><path class="n" d="M4124.943,7718.736l-4.574,6.887a1.224,1.224,0,0,1-2.04-1.354l.016-.024,4.54-6.841.016-.024a1.225,1.225,0,0,1,2.042,1.355Z"/><path class="n" d="M4115.634,7732.4l-4.9,6.663a1.223,1.223,0,1,1-1.971-1.448l.017-.024,4.861-6.616.018-.024a1.223,1.223,0,1,1,1.972,1.449Z"/><path class="n" d="M4105.68,7745.607l-5.215,6.417a1.222,1.222,0,0,1-1.9-1.541l.019-.023,5.176-6.372.019-.023a1.222,1.222,0,0,1,1.9,1.542Z"/><path class="n" d="M4095.093,7758.311l-5.527,6.153a1.22,1.22,0,1,1-1.815-1.631l.02-.023,5.485-6.108.02-.022a1.221,1.221,0,1,1,1.817,1.631Z"/><path class="n" d="M4083.888,7770.476l-5.826,5.869a1.218,1.218,0,1,1-1.729-1.717l.021-.021,5.782-5.827.022-.022a1.219,1.219,0,0,1,1.73,1.718Z"/><path class="n" d="M4072.091,7782.068l-6.113,5.571a1.217,1.217,0,0,1-1.639-1.8l.022-.02,6.067-5.531.022-.02a1.217,1.217,0,1,1,1.641,1.8Z"/><path class="n" d="M4059.729,7793.055l-6.382,5.261a1.216,1.216,0,0,1-1.546-1.877l.023-.018,6.334-5.223.024-.019a1.216,1.216,0,1,1,1.547,1.876Z"/><path class="n" d="M4046.837,7803.416l-6.633,4.94a1.214,1.214,0,1,1-1.45-1.948l.023-.017,6.585-4.906.024-.017a1.215,1.215,0,1,1,1.451,1.948Z"/><path class="n" d="M4033.453,7813.132l-6.864,4.613a1.212,1.212,0,1,1-1.353-2.012l.024-.016,6.815-4.582.024-.017a1.213,1.213,0,1,1,1.354,2.014Z"/><path class="n" d="M4019.617,7822.193l-7.074,4.283a1.211,1.211,0,0,1-1.255-2.072l.024-.014,7.025-4.255.025-.015a1.212,1.212,0,1,1,1.255,2.073Z"/><path class="n" d="M4005.372,7830.594l-7.257,3.951a1.21,1.21,0,0,1-1.157-2.125l.024-.013,7.208-3.926.024-.013a1.211,1.211,0,0,1,1.158,2.126Z"/><path class="n" d="M3990.771,7838.332l-7.425,3.625a1.208,1.208,0,0,1-1.06-2.172l.024-.011,7.377-3.6.023-.012a1.209,1.209,0,0,1,1.062,2.173Z"/><path class="n" d="M3975.844,7845.421l-7.573,3.305a1.207,1.207,0,0,1-.966-2.212l.024-.01,7.526-3.286.023-.01a1.207,1.207,0,1,1,.967,2.213Z"/><path class="n" d="M3960.631,7851.874l-7.7,2.992a1.205,1.205,0,1,1-.874-2.246l.022-.009,7.657-2.977.023-.008a1.206,1.206,0,1,1,.874,2.248Z"/><path class="n" d="M3945.168,7857.706l-7.813,2.69a1.2,1.2,0,1,1-.783-2.276l.021-.008,7.769-2.676.022-.007a1.2,1.2,0,1,1,.785,2.277Z"/><path class="n" d="M3929.493,7862.938l-7.908,2.4a1.2,1.2,0,1,1-.7-2.3l.02-.006,7.866-2.386.021-.007a1.2,1.2,0,0,1,.7,2.3Z"/><path class="n" d="M3913.636,7867.59l-7.987,2.116a1.2,1.2,0,0,1-.614-2.322l.019,0,7.947-2.107.02,0a1.2,1.2,0,1,1,.615,2.323Z"/><path class="n" d="M3897.628,7871.685l-8.053,1.847a1.2,1.2,0,0,1-.536-2.338l.019,0,8.014-1.839.019,0a1.2,1.2,0,1,1,.537,2.339Z"/><path class="n" d="M3881.5,7875.247l-8.1,1.588a1.2,1.2,0,1,1-.461-2.35l.018,0,8.065-1.583.018,0a1.2,1.2,0,1,1,.461,2.352Z"/><path class="n" d="M3865.273,7878.3l-8.147,1.344a1.2,1.2,0,0,1-.389-2.36l.017,0,8.112-1.34.017,0a1.2,1.2,0,1,1,.39,2.362Z"/><path class="n" d="M3848.961,7880.87l-8.182,1.112a1.195,1.195,0,0,1-.322-2.368l.016,0,8.149-1.108.017,0a1.2,1.2,0,1,1,.322,2.369Z"/><path class="n" d="M3832.582,7882.981l-8.21.891a1.193,1.193,0,1,1-.257-2.373h.015l8.178-.889.016,0a1.194,1.194,0,0,1,.258,2.374Z"/><path class="n" d="M3816.152,7884.656l-8.229.681a1.192,1.192,0,0,1-.2-2.376h.015l8.2-.679.014,0a1.193,1.193,0,0,1,.2,2.377Z"/><path class="n" d="M3799.686,7885.916l-8.237.482a1.191,1.191,0,1,1-.139-2.377h.014l8.209-.482h.014a1.191,1.191,0,1,1,.139,2.378Z"/><path class="n" d="M3783.2,7886.784l-8.249.293a1.189,1.189,0,1,1-.085-2.376h.013l8.223-.294h.014a1.19,1.19,0,0,1,.084,2.378Z"/><path class="n" d="M3766.7,7887.279l-8.255.114a1.187,1.187,0,1,1-.033-2.374h.012l8.23-.116h.013a1.188,1.188,0,0,1,.033,2.376Z"/><path class="n" d="M3750.2,7887.431l-8.243-.015a1.186,1.186,0,1,1,.012-2.372l8.228.014a1.187,1.187,0,0,1,.011,2.373Z"/><path class="n" d="M3733.707,7887.348l-8.25-.12a1.184,1.184,0,1,1,.042-2.368l8.235.118a1.185,1.185,0,0,1-.019,2.37Z"/><path class="n" d="M3717.209,7887.057l-8.247-.221a1.183,1.183,0,1,1,.07-2.365l8.233.22a1.183,1.183,0,1,1-.049,2.366Z"/><path class="n" d="M3700.716,7886.565l-8.244-.32a1.182,1.182,0,1,1,.1-2.361l8.229.318a1.182,1.182,0,1,1-.077,2.363Z"/><path class="n" d="M3684.23,7885.876l-8.239-.416a1.18,1.18,0,1,1,.126-2.356l8.226.414a1.18,1.18,0,0,1-.106,2.358Z"/><path class="n" d="M3667.754,7885l-8.233-.51a1.178,1.178,0,1,1,.151-2.352l8.221.507a1.179,1.179,0,1,1-.132,2.355Z"/><path class="n" d="M3651.29,7883.932l-8.228-.6a1.177,1.177,0,1,1,.178-2.347l8.214.6a1.178,1.178,0,0,1-.158,2.35Z"/><path class="n" d="M3634.838,7882.687l-8.22-.689a1.176,1.176,0,1,1,.2-2.342l8.208.686a1.176,1.176,0,1,1-.184,2.345Z"/><path class="n" d="M3618.4,7881.268l-8.213-.774a1.173,1.173,0,1,1,.226-2.336l8.2.77a1.175,1.175,0,0,1-.208,2.34Z"/><path class="n" d="M3601.987,7879.681l-8.2-.855a1.173,1.173,0,1,1,.249-2.332l8.186.853a1.173,1.173,0,1,1-.231,2.334Z"/><path class="n" d="M3585.594,7877.931,3577.4,7877a1.171,1.171,0,1,1,.271-2.326l8.18.931a1.172,1.172,0,1,1-.254,2.33Z"/><path class="n" d="M3569.215,7876.024l-8.184-1.012a1.169,1.169,0,1,1,.292-2.32l8.173,1.008a1.17,1.17,0,1,1-.276,2.324Z"/><path class="n" d="M3552.85,7873.964l-8.178-1.086a1.168,1.168,0,1,1,.313-2.314l8.167,1.082a1.168,1.168,0,1,1-.3,2.318Z"/><path class="n" d="M3536.5,7871.757l-8.17-1.157a1.166,1.166,0,1,1,.332-2.309l8.16,1.154a1.167,1.167,0,1,1-.317,2.312Z"/><path class="n" d="M3520.163,7869.408l-8.163-1.226a1.165,1.165,0,1,1,.351-2.3l8.153,1.223a1.166,1.166,0,0,1-.336,2.307Z"/><path class="n" d="M3503.842,7866.923l-8.146-1.291a1.163,1.163,0,1,1,.368-2.3l8.138,1.288a1.164,1.164,0,0,1-.355,2.3Z"/><path class="n" d="M3487.555,7864.309l-8.136-1.353a1.162,1.162,0,1,1,.386-2.292l8.127,1.351a1.162,1.162,0,0,1-.372,2.295Z"/><path class="n" d="M3471.289,7861.572l-8.125-1.415a1.161,1.161,0,1,1,.4-2.286l8.117,1.412a1.161,1.161,0,1,1-.39,2.289Z"/><path class="n" d="M3455.044,7858.714l-8.115-1.472a1.159,1.159,0,1,1,.418-2.28l8.107,1.469a1.16,1.16,0,1,1-.406,2.284Z"/><path class="n" d="M3438.82,7855.743l-8.1-1.527a1.157,1.157,0,1,1,.432-2.274l8.1,1.524a1.158,1.158,0,0,1-.421,2.277Z"/><path class="n" d="M3422.617,7852.662l-8.094-1.579a1.156,1.156,0,1,1,.446-2.269l8.087,1.577a1.157,1.157,0,1,1-.436,2.272Z"/><path class="n" d="M3406.433,7849.478l-8.084-1.629a1.155,1.155,0,1,1,.46-2.263l8.077,1.627a1.155,1.155,0,1,1-.449,2.266Z"/><path class="n" d="M3390.27,7846.2l-8.074-1.677a1.153,1.153,0,1,1,.472-2.257l8.068,1.674a1.153,1.153,0,1,1-.462,2.26Z"/><path class="n" d="M3374.127,7842.82l-8.064-1.722a1.152,1.152,0,1,1,.483-2.252l8.059,1.719a1.152,1.152,0,1,1-.475,2.255Z"/><path class="n" d="M3358,7839.355l-8.055-1.763a1.15,1.15,0,1,1,.494-2.247l8.05,1.761a1.151,1.151,0,1,1-.486,2.25Z"/><path class="n" d="M3341.9,7835.808l-8.046-1.8a1.148,1.148,0,1,1,.5-2.241l8.041,1.8a1.149,1.149,0,1,1-.5,2.244Z"/><path class="n" d="M3325.809,7832.181l-8.037-1.84a1.147,1.147,0,1,1,.514-2.236l8.033,1.838a1.148,1.148,0,0,1-.507,2.239Z"/><path class="n" d="M3309.738,7828.482l-8.029-1.876a1.145,1.145,0,1,1,.523-2.23l8.025,1.873a1.146,1.146,0,0,1-.516,2.234Z"/><path class="n" d="M3293.684,7824.714l-8.022-1.908a1.144,1.144,0,1,1,.532-2.225l8.017,1.9a1.145,1.145,0,0,1-.525,2.229Z"/><path class="n" d="M3277.645,7820.882l-8.014-1.938a1.142,1.142,0,1,1,.538-2.22l8.011,1.936a1.143,1.143,0,1,1-.533,2.223Z"/><path class="n" d="M3261.62,7816.992l-8.007-1.966a1.141,1.141,0,1,1,.545-2.216l8,1.964a1.142,1.142,0,0,1-.54,2.218Z"/><path class="n" d="M3245.609,7813.048l-8-1.991a1.14,1.14,0,1,1,.552-2.212l8,1.989a1.14,1.14,0,0,1-.547,2.214Z"/><path class="n" d="M3229.61,7809.054l-8-2.015a1.138,1.138,0,1,1,.557-2.206l8,2.013a1.139,1.139,0,0,1-.553,2.209Z"/><path class="n" d="M3213.613,7805.015l-7.991-2.035a1.137,1.137,0,1,1,.562-2.2l7.989,2.033a1.137,1.137,0,0,1-.558,2.205Z"/><path class="n" d="M3197.637,7800.936l-7.979-2.068a1.135,1.135,0,1,1,.573-2.2l7.971,2.064a1.136,1.136,0,1,1-.562,2.2Z"/><path class="n" d="M3181.686,7796.777l-7.967-2.114a1.134,1.134,0,1,1,.584-2.191l7.962,2.111a1.135,1.135,0,0,1-.576,2.195Z"/><path class="n" d="M3165.756,7792.53l-7.959-2.148a1.132,1.132,0,1,1,.591-2.186l7.956,2.147a1.133,1.133,0,0,1-.586,2.188Z"/><path class="n" d="M3149.84,7788.221l-7.953-2.171a1.131,1.131,0,1,1,.6-2.182l7.952,2.169a1.132,1.132,0,0,1-.593,2.184Z"/><path class="n" d="M3133.934,7783.871l-7.951-2.182a1.129,1.129,0,1,1,.6-2.178l7.951,2.181a1.13,1.13,0,0,1-.6,2.179Z"/><path class="n" d="M3118.032,7779.5l-7.952-2.183a1.127,1.127,0,1,1,.6-2.175l7.953,2.181a1.129,1.129,0,1,1-.6,2.177Z"/><path class="n" d="M3102.128,7775.145l-7.955-2.17a1.126,1.126,0,1,1,.591-2.173l7.957,2.169a1.127,1.127,0,1,1-.592,2.174Z"/><path class="n" d="M3086.217,7770.816l-7.96-2.146a1.125,1.125,0,1,1,.583-2.173l7.964,2.146a1.125,1.125,0,0,1-.585,2.173Z"/><path class="n" d="M3070.293,7766.54l-7.967-2.111a1.123,1.123,0,1,1,.572-2.172l7.973,2.11a1.124,1.124,0,0,1-.575,2.173Z"/><path class="n" d="M3054.353,7762.341l-7.978-2.063a1.122,1.122,0,1,1,.558-2.173l7.986,2.063a1.123,1.123,0,0,1-.562,2.174Z"/><path class="n" d="M3038.391,7758.243l-7.992-2a1.12,1.12,0,1,1,.54-2.174l8,2a1.121,1.121,0,0,1-.545,2.175Z"/><path class="n" d="M3022.4,7754.269l-8.007-1.934a1.118,1.118,0,1,1,.52-2.175l8.017,1.934a1.119,1.119,0,1,1-.525,2.176Z"/><path class="n" d="M3006.379,7750.442l-8.024-1.85a1.117,1.117,0,1,1,.5-2.179l8.036,1.852a1.118,1.118,0,0,1-.5,2.179Z"/><path class="n" d="M2990.321,7746.787l-8.044-1.756a1.116,1.116,0,1,1,.469-2.182l8.058,1.758a1.117,1.117,0,1,1-.476,2.182Z"/><path class="n" d="M2974.222,7743.327l-8.066-1.65a1.114,1.114,0,1,1,.438-2.185l8.082,1.652a1.115,1.115,0,1,1-.447,2.184Z"/><path class="n" d="M2958.078,7740.085l-8.089-1.532h-.009a1.113,1.113,0,0,1,.414-2.187l8.107,1.533a1.114,1.114,0,0,1-.414,2.189h-.009Z"/><path class="n" d="M2941.887,7737.084l-8.116-1.454a1.111,1.111,0,1,1,.394-2.187l8.111,1.452a1.112,1.112,0,1,1-.387,2.19Z"/><path class="n" d="M2925.663,7734.172l-8.11-1.445a1.109,1.109,0,1,1,.386-2.185l8.116,1.444a1.111,1.111,0,1,1-.389,2.187Z"/><path class="n" d="M2909.438,7731.313l-8.121-1.366a1.108,1.108,0,1,1,.359-2.187l8.137,1.368a1.108,1.108,0,1,1-.368,2.186Z"/><path class="n" d="M2893.187,7728.646l-8.14-1.221-.012,0a1.107,1.107,0,0,1,.328-2.189l8.164,1.223a1.107,1.107,0,0,1-.328,2.19h-.012Z"/><path class="n" d="M2876.9,7726.3l-8.165-1.01-.016,0a1.105,1.105,0,1,1,.271-2.194l8.2,1.012a1.106,1.106,0,0,1-.271,2.2h0Z"/><path class="n" d="M2860.554,7724.412l-8.189-.731-.022,0a1.1,1.1,0,0,1,.2-2.2l8.232.732a1.1,1.1,0,0,1-.2,2.2h0Z"/><path class="n" d="M2844.165,7723.118l-8.208-.376h-.027a1.1,1.1,0,1,1,.1-2.2l8.261.377a1.1,1.1,0,0,1-.1,2.2h0Z"/><path class="n" d="M2827.744,7722.572l-8.211.058h-.032a1.1,1.1,0,0,1-.016-2.2l8.275-.061a1.1,1.1,0,1,1,.016,2.2h-.032Z"/><path class="n" d="M2811.331,7722.939l-8.184.58-.039,0a1.1,1.1,0,1,1-.155-2.192l8.26-.587a1.1,1.1,0,1,1,.156,2.194h0Z"/><path class="n" d="M2794.992,7724.393l-8.11,1.192-.045.007a1.1,1.1,0,0,1-.319-2.172l8.2-1.206a1.1,1.1,0,1,1,.32,2.173h0Z"/><path class="n" d="M2778.832,7727.116l-7.968,1.89-.05.011a1.1,1.1,0,0,1-.506-2.133l8.067-1.914a1.1,1.1,0,0,1,.507,2.134h0Z"/><path class="n" d="M2763,7731.271l-7.74,2.657-.053.018a1.094,1.094,0,1,1-.711-2.07l7.846-2.695a1.1,1.1,0,1,1,.711,2.072Z"/><path class="n" d="M2747.669,7736.986l-7.411,3.463-.055.026a1.093,1.093,0,0,1-.925-1.98l7.519-3.516a1.093,1.093,0,1,1,.926,1.981h0Z"/><path class="n" d="M2733.05,7744.318l-6.98,4.267-.053.032a1.091,1.091,0,0,1-1.138-1.862l7.084-4.333a1.093,1.093,0,0,1,1.14,1.864h0Z"/><path class="n" d="M2719.341,7753.235l-6.387,5.081-.063.05a1.09,1.09,0,0,1-1.357-1.706l6.514-5.182a1.09,1.09,0,1,1,1.358,1.706Z"/><path class="n" d="M2706.946,7763.844l-5.628,5.924-.049.052a1.088,1.088,0,0,1-1.578-1.5l5.725-6.029a1.089,1.089,0,1,1,1.579,1.5h0Z"/><path class="n" d="M2696.079,7776.044l-4.839,6.59-.04.054a1.087,1.087,0,0,1-1.752-1.287l4.918-6.7a1.087,1.087,0,0,1,1.753,1.287h0Z"/><path class="n" d="M2686.814,7789.508l-3.993,7.134-.033.06a1.085,1.085,0,0,1-1.894-1.06l4.058-7.253a1.086,1.086,0,1,1,1.9,1.06Z"/><path class="n" d="M2679.287,7804.012l-3.046,7.583-.028.067a1.083,1.083,0,1,1-2.011-.807l3.1-7.718a1.084,1.084,0,0,1,2.013.808Z"/><path class="n" d="M2673.723,7819.364l-1.944,7.927-.02.081a1.082,1.082,0,0,1-2.1-.516l1.982-8.086a1.083,1.083,0,0,1,2.1.516Z"/><path class="n" d="M2670.461,7835.34l-.634,8.123-.007.1a1.081,1.081,0,0,1-2.155-.168l.648-8.314a1.081,1.081,0,0,1,2.155.168h0Z"/><path class="n" d="M2669.937,7851.6c.123,1.351.179,2.7.37,4.054l.491,4.053.006.05a1.079,1.079,0,0,1-2.143.26l-.5-4.13c-.194-1.372-.254-2.769-.379-4.154a1.08,1.08,0,0,1,2.151-.195Z"/><path class="n" d="M2672.283,7867.735l2.157,7.854.027.1a1.077,1.077,0,0,1-2.077.571l-2.211-8.042a1.078,1.078,0,1,1,2.079-.572Z"/><path class="n" d="M2677.348,7883.181a67.336,67.336,0,0,0,3.734,7.2,1.077,1.077,0,0,1-1.847,1.107,69.562,69.562,0,0,1-3.855-7.432,1.077,1.077,0,0,1,1.968-.878Z"/><path class="n" d="M2685.714,7896.98a50.276,50.276,0,0,0,5.693,5.706,1.075,1.075,0,1,1-1.4,1.631,52.218,52.218,0,0,1-5.937-5.951,1.076,1.076,0,0,1,1.646-1.387Z"/><path class="n" d="M2697.883,7907.56l7,4.149.088.052a1.073,1.073,0,1,1-1.094,1.846l-7.183-4.256a1.073,1.073,0,0,1,1.094-1.847h0Z"/><path class="n" d="M2712.241,7915.225l7.611,2.956.068.027a1.072,1.072,0,1,1-.776,2l-7.752-3.01a1.072,1.072,0,0,1,.777-2Z"/><path class="n" d="M2727.652,7920.627l7.944,1.961.063.016a1.07,1.07,0,1,1-.513,2.078l-8.07-1.991a1.071,1.071,0,1,1,.513-2.079h0Z"/><path class="n" d="M2743.64,7924.064l8.116.968.071.009a1.069,1.069,0,0,1-.253,2.122l-8.255-.982a1.07,1.07,0,0,1,.252-2.125h0Z"/><path class="n" d="M2759.908,7925.428l8.137-.3.111,0a1.066,1.066,0,0,1,.08,2.131l-8.347.315a1.068,1.068,0,1,1-.08-2.134h0Z"/><path class="n" d="M4205.017,7369.537l-16.668,27.833-11.684-23.255Z"/><path class="aj" d="M4089.425,7278.606l35.68,110.945a8.211,8.211,0,0,0,10.623,5.2l110.042-40.02a3.291,3.291,0,0,0,.219-6.1Z"/><path class="n" d="M4205.006,7369.535l-115.582-90.929,97.843,97.443-4.294,7.915Z"/><path class="n" d="M4176.721,7379.83l11.628,17.54-1.081-21.321Z"/><path class="ak" d="M3322.242,8377.862s-1.992,10.682-3.019,21.264a7.3,7.3,0,0,0,6.9,7.973c14.1.722,44.257,2.152,55.087,1.772a2.375,2.375,0,0,0,2.121-3.233h0a5.32,5.32,0,0,0-2.692-2.89l-49.615-23.379Z"/><path class="al" d="M3320.754,8371.561l1.4,12.813s8.691,4.146,14.7-.372l-3.479-14.3Z"/><path class="am" d="M3324.19,8130.974c-.687,3.336-5.111,166.74,11.66,240.147a2.486,2.486,0,0,1-1.486,2.877,43.256,43.256,0,0,1-14.255,2.756,4.282,4.282,0,0,1-4.218-3.113c-4.832-17.041-27.948-102.406-30.294-183.767-2.621-90.911.03-3.094.03-3.094l2.581-56.156Z"/><path class="an" d="M3264.863,8382.9s-3.06,5.372-6.109,19.7a4.453,4.453,0,0,0,3.866,5.369c4.653.5,11.817,1.159,17.561,1.175a4.438,4.438,0,0,0,4.441-4.91c-.586-5.244-2.486-13.858-8.544-20.616Z"/><path class="ao" d="M3262.378,8366.412l3.363,19.387s3.484,2.643,10.441.817l-1.495-20.839Z"/><path class="ap" d="M3255,8135.33c-15.11,86.092,1.066,213.148,6.693,238.041a3.874,3.874,0,0,0,3.1,2.971,26.005,26.005,0,0,0,11.179-.34,3.549,3.549,0,0,0,2.583-3.244c.978-20.071.739-143.35,14.516-191.938a11.061,11.061,0,0,1,4.327-6.065l26.014-18.123,2.265-29.674Z"/><path class="aj" d="M3347.6,7972.813c-42.811-1.116-90.169,10.383-90.169,10.383-13.474,74.351-3.762,160.35-3.762,160.35,33.065,9.009,70.592-4.642,70.592-4.642,5.807-31.075,32.349-118.433,32.349-118.433,20.945-2.4,38.237-8.269,52.505-16.113-10.706-12.652-15.657-28.668-17.783-38.128C3376.146,7970.79,3360.8,7973.157,3347.6,7972.813Z"/><path class="aq" d="M3474.676,7910.951a8.193,8.193,0,0,0-9.5-2.768c-6.555,26.556-39.8,47.822-73.842,58.047,2.126,9.46,7.077,25.476,17.783,38.128C3465.747,7973.223,3474.676,7910.951,3474.676,7910.951Z"/><path class="ar" d="M3473.643,7912.233c.427,1.4-4.69,3.486-7.636-2.266-.079-2.743-1.635-14.508.025-16.727,8.842-11.816,25.906-26.572,25.906-26.572a4.026,4.026,0,0,1,.451,5.6l-8.291,8.474c1.688,3.119,3.757,5.758,4.7,9.521a11.5,11.5,0,0,1-1.228,8.455c-1.466,2.582-3.464,5.938-5.347,8.561A11.361,11.361,0,0,1,3473.643,7912.233Z"/><path class="as" d="M3480.455,7886.255l-7.542,6.271-2.409,6.291,6.6,7.463s2.362-12.507,4.054-15.2S3482,7887.063,3480.455,7886.255Z"/><path class="aj" d="M3273.456,8024.813l-16.027-41.617s-40.254,26.793-47.16,61.185a94.634,94.634,0,0,1,34.679,9.65C3248.061,8037.79,3273.456,8024.813,3273.456,8024.813Z"/><path class="at" d="M3308.035,8064.16s-45.146,24.949-60.091,3.135a17.035,17.035,0,0,1-3-13.264,94.634,94.634,0,0,0-34.679-9.65,47.555,47.555,0,0,0,4.858,32.648c26.076,48.8,98.744-1.741,98.744-1.741Z"/><path class="au" d="M3304.559,7937.638l-14,39.269a1.418,1.418,0,0,0,.631,1.716c3.694,2.089,17.017,8.152,33.239-1.917a6.685,6.685,0,0,0,3.124-4.745l4.737-34.059Z"/><path class="av" d="M3334.551,7901.435s14.692,28.305,12.666,39.662-20.56,10.364-36.663.971l-11.024-30.517Z"/><path class="aw" d="M3311.412,7927.141a1.161,1.161,0,0,0,.523-1.694c-1.181-1.843-3.392-5.6-4.078-8.877,0,0-2.673-1.748,6.883-3.939s23.809-5.6,26.875-13.685c2.99-7.885-4.476-27.857-16.842-12.119a1.16,1.16,0,0,1-1.839,0c-1.978-2.626-7.19-8.085-14.53-4.876-6.869,3-7.687,8.008-7.618,10.536a1.153,1.153,0,0,1-1.378,1.168c-3.452-.692-11.745-1.338-15.7,7.138-3.257,6.981-1.221,10.97.648,12.929a1.157,1.157,0,0,1-.513,1.917c-2.28.674-5.232,2.573-4.99,7.9.336,7.365,8.572,6.795,10.919,6.482a1.162,1.162,0,0,1,1.027.374c1.988,2.243,10.95,11.769,20.736,13a1.171,1.171,0,0,0,1.243-1.535l-4.122-12.365a1.166,1.166,0,0,1,.644-1.44Z"/><path class="ax" d="M3313.1,7928.907s-10.582-7.41-11.419-1.263,9.507,9.006,14.665,6.76Z"/><path class="ay" d="M3298.808,8103.589l24.593-85.884a2.5,2.5,0,0,1,2.118-1.8c4.456-.52,17.367-1.98,32.274-3.24,17.956-1.519,38.809-2.75,51.27-1.7a2.513,2.513,0,0,1,2.054,3.616c-7.086,14.336-36.233,72.651-50.829,91.754a2.521,2.521,0,0,1-2.028,1l-57.059-.531A2.512,2.512,0,0,1,3298.808,8103.589Z"/><path class="ay" d="M3304.75,8082.839s-3.426-14.086-2.044-19.084,4.059-11.424,12.984-10a130.6,130.6,0,0,1,19.451,5.188s-.531,6.51-7.314,4.409l4.206,3.255s-.6,5.212-6.33,2.427l3.912,4.316s-2.461,4.281-6.676,1.536S3316.7,8084.536,3304.75,8082.839Z"/><path class="ay" d="M3356.153,8038.3a7.219,7.219,0,1,0,7.22-7.22A7.22,7.22,0,0,0,3356.153,8038.3Z"/><path class="ay" d="M3326.183,8043.058l-1.84-.543,5.007-16.985a7.739,7.739,0,0,1,5.826-5.422c15.871-3.313,57.671-3.988,59.442-4.016l.03,1.919c-.432.006-43.388.7-59.08,3.975a5.827,5.827,0,0,0-4.378,4.087Z"/><path class="az" d="M3035.133,8283.408c-2.622,3.879-13.041,91.708-14.672,124.146a3.837,3.837,0,0,0,3.841,4.023h0a3.843,3.843,0,0,0,3.8-3.251l19.058-122.124Z"/><path class="ba" d="M3118.9,8283.408c2.622,3.879,13.041,91.708,14.671,124.146a3.836,3.836,0,0,1-3.841,4.023h0a3.842,3.842,0,0,1-3.8-3.251L3106.877,8286.2Z"/><path class="bb" d="M3019.372,8276.553l-.009.958c-.063,6.891,5.873,12.542,13.306,12.668l88.086,1.5c7.326.124,13.432-5.17,13.788-11.953l.046-.877c.37-7.073-5.637-13.033-13.277-13.171l-88.124-1.58C3025.646,8263.962,3019.435,8269.561,3019.372,8276.553Z"/><path class="n" d="M3204.929,8404.364c-15.659,0-22.587-1.343-25.685-2.568a5.942,5.942,0,0,0,5.787,4.6h55.4a2.694,2.694,0,0,0,2.6-3.4C3236.709,8403.5,3223.3,8404.364,3204.929,8404.364Z"/><path class="bc" d="M3243.023,8403a2.594,2.594,0,0,0-.453-.943c-4.22-5.387-12.7-13.848-24.227-13.686-16.892.237-22.781,2.07-35.908.1l-3.1,10.266a5.9,5.9,0,0,0-.094,3.062c3.1,1.226,10.026,2.568,25.685,2.568C3223.3,8404.364,3236.709,8403.5,3243.023,8403Z"/><path class="bd" d="M3186.236,8377.408l-3.8,12.928s8.421,3.834,15.828.756l1.454-11.2Z"/><path class="n" d="M3301.05,8396.223c-12.207,9.808-18.445,13.105-21.624,14.095a5.934,5.934,0,0,0,7.38-.055l43.183-34.7a2.685,2.685,0,0,0-.1-4.267C3325.286,8375.649,3315.369,8384.718,3301.05,8396.223Z"/><path class="be" d="M3329.892,8371.3a2.6,2.6,0,0,0-.941-.448c-6.648-1.535-18.53-2.791-27.417,4.558-13.02,10.765-16.469,15.875-27.928,22.571l3.985,9.9a5.835,5.835,0,0,0,1.835,2.435c3.179-.989,9.417-4.287,21.624-14.095C3315.369,8384.718,3325.286,8375.649,3329.892,8371.3Z"/><path class="f" d="M3104.921,8230.115s93.749,7.654,112.98,16.708-15.694,135.94-15.694,135.94-5.235,2.521-16.885-1.1c0,0,11.946-93.638,3.057-113.942l-101.506-16.6Z"/><path class="bd" d="M3264.292,8380.156c.87.793,9.314,17.824,9.314,17.824s9.4-2.034,11.318-7.983l-8.459-15.371Z"/><path class="f" d="M3048.458,8229.332a47.459,47.459,0,0,0-2.931,17.12,25.7,25.7,0,0,0,24.528,25.146l110.826,5.055a5.314,5.314,0,0,1,4.907,4c2.6,10.072,15.334,41.007,77.559,102.733a5.016,5.016,0,0,0,6.206.676l8.857-5.595a2.04,2.04,0,0,0,.671-2.756l-64.528-110.192a24.978,24.978,0,0,0-15.174-11.254l-94.458-24.145Z"/><path class="bf" d="M3157.675,8057.2s-11.872,20.991-23.976,31.16l25.019,13.959s5.638-22.221,18.518-28.729Z"/><path class="bg" d="M3046.444,8230.115s29.919,7.292,58.477,0c0,0,39.961-53.718,55.421-68.339,0,0,24.659,38.914,79.547,44.427l3.062-6.84s-43.7-20.143-57.149-51.094-18.856-44.151-31.094-52.226c-7.622-5.029-12.186-8.465-14.544-10.341a3.915,3.915,0,0,0-4.483-.285C3122.693,8093.332,3061.58,8135.188,3046.444,8230.115Z"/><path class="bh" d="M3158.719,8161.019a1.911,1.911,0,0,1-1.523-.751,119.371,119.371,0,0,1-15.056-26.693,1.919,1.919,0,1,1,3.583-1.375,117.761,117.761,0,0,0,14.518,25.733,1.918,1.918,0,0,1-1.522,3.086Z"/><path class="bd" d="M3236.589,8195.79l6.178-1.646,18.759-4.344a8.692,8.692,0,0,1,6.593,1.112l16.129,10.146-44.541-.074Z"/><path class="bi" d="M3176.526,8025.726s11.538,19.179,13.54,29.78,5.215,17.227-6.849,21.005-23.277-1-30.314-10.9c0,0-10.989-15.228-9.893-22.2S3176.526,8025.726,3176.526,8025.726Z"/><path class="bj" d="M3156.115,8057.408l1.56-.206s-8.169-12.345-2.824-15.408,27.131-10.576,30.914-19.156c3.648-8.271-1.808-17.615-8.386-19.565a.838.838,0,0,0-1.006.53l-.386,1.041a.846.846,0,0,1-1.568.046h0a.842.842,0,0,0-1.534-.032c-1.165,2.57-4.66,6.96-15.136,10.356-14.866,4.82-24.126,12.313-22.986,22.875a.846.846,0,0,1-1.208.858c-1.215-.537-3.057-.621-5.2,1.718-3.72,4.069-.806,12.969,9.354,19.267a.841.841,0,0,1,.137,1.349c-1.52,1.3-3.658,4.2,3.216,6.79,7.032,2.646,10.869,1.751,12.286,1.182a.847.847,0,0,0,.521-.951l-1.806-9.255a.847.847,0,0,1,.72-1Z"/><path class="bk" d="M3156.755,8059.309s-5.091-12.551-10.438-8.14,4.942,14.165,9.691,14.034Z"/><path class="bl" d="M3219.381,8209.8c.073,0,.146,0,.219,0l95.154-.095a4.251,4.251,0,1,0-.01-8.5l-95.154.095a4.251,4.251,0,0,0-.209,8.5Z"/><path class="bm" d="M3351.6,8116.61c-.034.065-.066.13-.1.2l-40.037,86.322a4.251,4.251,0,1,0,7.714,3.575l40.037-86.321a4.251,4.251,0,0,0-7.617-3.773Z"/><rect class="bn" width="10.043" height="108.609" transform="translate(3590.734 8296.549)"/><path class="bo" d="M3639.736,8407.252h-87.962a6.537,6.537,0,0,1,6.537-6.537H3633.2a6.537,6.537,0,0,1,6.537,6.537Z"/><rect class="bp" width="110.596" height="31.366" rx="10.8" transform="translate(3542.195 8272.214)"/><path class="bq" d="M3521.613,8224.131s-14.924,2.314-31.7,13.53a8.366,8.366,0,0,0-3.691,7.994c2.009,15.915,10.27,67.425,37.51,117.735a12.673,12.673,0,0,1,1.216,8.69l-4.733,22.024-8.776,8.229h22.606l15.051-40.732-6.436-2.034a12.179,12.179,0,0,1-8.5-11.4l-.755-43.694c.645-19.467-11.936-32.9-11.936-32.9l36.1-1.756Z"/><path class="br" d="M3502.608,8406.308c-2.058,2.694,22.158,6.25,34.393.356,0,0,16.961-29.508,16.961-44.7,0,0-1.346-3.1-11.3-2.395,0,0-5.7,34.939-11.708,38.854s-16.823.4-16.823.4S3505.646,8402.332,3502.608,8406.308Z"/><path class="bs" d="M3553,8272.213c-.192-.332-38.87-4.649-38.87-4.649s1.265,11.76-2.69,27.948-60.744,86.327-60.744,86.327l5.954,18.876c-18.41,6.413-36.519,7.438-54.339,3.27l36.9-22.146s34.536-117.689,55.69-138.685l38.77-13.414Z"/><path class="f" d="M3639.736,8203.734s22.285,33.145,24.113,48.264-6.1,21.262-29.486,22.275-85.8,1-85.8,1l-53.275-45.529s38.824-13.854,48.918-17.771S3639.736,8203.734,3639.736,8203.734Z"/><path class="bt" d="M3454.4,8394.358s6.411,6.209,2.08,13.116c0,0-50.782,9-64.569,4.918,0,0,2.863-6.534,18.388-13.972l-1.145.879a1.854,1.854,0,0,0,1.225,3.327C3420.6,8402.044,3441.777,8400.169,3454.4,8394.358Z"/><path class="bu" d="M3543.209,7993.535c45.552-7.745,67,29.407,65.431,37.214a1.428,1.428,0,0,0,1.788,1.637c5.229-1.408,16.783-3.183,23.944,5.791,6.323,7.923,1.6,15.4-2.255,19.5a1.437,1.437,0,0,0,1.2,2.43c9.615-1.213,30.507-1.5,33.925,18.067,3.188,18.251-9.515,23.4-17.049,24.849a1.429,1.429,0,0,0-.477,2.616c3.759,2.385,8.113,7.312,6.354,17.036-2.758,15.24-32.639,13.993-36.131,13.794a1.407,1.407,0,0,1-.623-.186l-47.86-27.3a1.439,1.439,0,0,1-.705-1l-9.662-55.8a1.439,1.439,0,0,1,.38-1.243l-31.2-44.031C3518.943,8005.243,3542.672,7993.626,3543.209,7993.535Z"/><path class="f" d="M3579.471,8199.346s-25.949-24.708-38.723-41.076a34.726,34.726,0,0,1-5.88-31.252c5.832-19.647,16.2-40,17.141-43.164,1.449-4.855,30.545-4.653,30.545-4.653s57.257,37.16,79.753,100.106l-25.265,7.866s-14.949-25.081-29.721-41.027c0,0,25.56,33.765,26.46,47.587Z"/><path class="bv" d="M3548.49,8056.722c.3,1.01,7.9,26.186,8.492,26.708s16.655,1.387,24.215-3.78l-18.752-36.679Z"/><path class="bw" d="M3518.046,8024.372s-3.671,14.423,6.483,33.821,21.65,19.378,27.933,13.169,14.033-16.745,12.192-35.5S3523.346,8006.025,3518.046,8024.372Z"/><path class="bx" d="M3550.608,8036.881s-16.847-25.755-32.646-5.485l-.286,7.372s-18.5-2.2-15.264-19.162,19.23-27.571,39.823-20.222,32.394,14.886,33.723,29.644-10.413,11.522-10.413,11.522-3.829-10.392-9.274-11.472-4.03,7.023-4.03,7.023Z"/><path class="by" d="M3557.782,8042.434s-8.738-13.188.216-15.155,7.564,12.851,6.6,18.332Z"/><path class="bz" d="M3526.6,8201.181l19.066-18.376,26.375,11.142s26.254,4.067,41.28,0l15.026-4.068,33.955-10.571,5.333,15.072a9.075,9.075,0,0,1-3.315,10.426,60.105,60.105,0,0,1-8.576,5.342c-4.472,1.956-110.23-1.354-110.23-1.354Z"/><path class="ca" d="M3598.757,8209.844c-.085,0-.169.007-.255.006l-110.6-.121a4.95,4.95,0,1,1,.011-9.9l110.6.121a4.95,4.95,0,0,1,.244,9.894Z"/><path class="cb" d="M3388.482,8109.428h92.107a17.554,17.554,0,0,1,15.877,10.067l42.581,90.29H3424.583a10.669,10.669,0,0,1-9.922-6.747l-33.019-83.55A7.355,7.355,0,0,1,3388.482,8109.428Z"/><path class="aj" d="M3453.372,8155.723c2,6.2.522,12.224-3.293,13.451s-8.526-2.8-10.522-9-.521-12.223,3.294-13.451S3451.376,8149.522,3453.372,8155.723Z"/><path class="cc" d="M3724.847,8393.563a134.633,134.633,0,0,1,1.619,14.1,6.072,6.072,0,0,1-5.472,6.408c-11.32,1.1-37.088,3.125-53.542.751a2.761,2.761,0,0,1-1.516-4.751c6.784-6.321,23.168-18.616,50.136-21.3Z"/><path class="cd" d="M3730.474,8379.034l-5.723,14.029a4.672,4.672,0,0,1-4.8,2.9,25.379,25.379,0,0,1-4.675-.905,6.143,6.143,0,0,1-4.085-7.639l4.32-14.449Z"/><path class="ce" d="M3828.327,8404.736s-11.461,9.589-15.926,21.89a5.23,5.23,0,0,0,4.967,6.947h23.585a5.561,5.561,0,0,0,5.5-6.5C3844.948,8418.574,3840.616,8404.772,3828.327,8404.736Z"/><path class="cf" d="M3842.525,8392.256s-2.315,10.247-4.094,17.02a2.166,2.166,0,0,1-2.832,1.475c-3.569-1.276-6.473-1.84-8.585-1.557a1.671,1.671,0,0,1-1.841-1.666l-.222-17.02Z"/><path class="cg" d="M3781.57,8161.684l-69.712,212.675s13.371,8.757,19.741,8.392l82.8-170.919s14.49,105.314,7.469,180.922l23.716,1.811s38.565-193.217,9.355-259.395Z"/><path class="ch" d="M3813.954,8210a.624.624,0,0,0,.085-.006.674.674,0,0,0,.585-.754l-2.705-21.472a.675.675,0,1,0-1.34.168l2.706,21.473A.675.675,0,0,0,3813.954,8210Z"/><path class="aj" d="M3768.5,7974.541s56.48,5.015,48.49,45.259c0,0,31.221,58.754,45.818,127.966a4.07,4.07,0,0,1-3.3,4.837l-94.058,16.1a5.065,5.065,0,0,1-5.757-3.722l-22.473-86.857-8.758,40.383-27.826-7.251,23.425-118.663S3727.327,7975.285,3768.5,7974.541Z"/><path class="n" d="M3736.739,8074.244a.725.725,0,0,0,.15-.016.7.7,0,0,0,.535-.833l-7.84-36a.7.7,0,0,0-1.369.3l7.84,36A.7.7,0,0,0,3736.739,8074.244Z"/><path class="ci" d="M3742.417,8181.373a13.426,13.426,0,0,1,9.712-1.263l6.544,1.628a2.371,2.371,0,0,0,2.93-2.036l6.772-60.277c8.468,4.021,20.684,3.541,24.713,3.246l-15.587,71.063h-54.545Z"/><path class="cj" d="M3597.493,8050.625l1.649-5.479a10.842,10.842,0,0,1,6.335-6.933l29.817-11.99s.45-3.825-6.3-6.423-5.172-10.159-5.172-10.159,9.222,4.207,22.722,10.879c7.722,3.816,12.054,10.553,14.351,15.624l67.565,82.368-7.933,5.45a21.178,21.178,0,0,1-30.705-7.535l-36.6-70.188C3634.842,8051.759,3616.247,8052.815,3597.493,8050.625Z"/><path class="ck" d="M3750.2,7936.116l17.372,48.619s-15.383,12.026-26.608,7.96l-8.754-27.87S3738.9,7930.763,3750.2,7936.116Z"/><path class="cl" d="M3698.357,7918.655c0,.75,16.734,47.372,16.734,47.372l26.417-10.121-9.3-46.544S3698.357,7906.113,3698.357,7918.655Z"/><path class="cm" d="M3727.579,7920.7l6.812,24.118a3.462,3.462,0,0,1,.132.943c0,1.967-.484,8.736-7.379,7.815-6.256-.835-11.978-1.505-15.617.209a3.5,3.5,0,0,0-1.805,4.349,151.289,151.289,0,0,0,9.516,21.476,3.491,3.491,0,0,0,4.49,1.438c4.962-2.258,15.293-7.311,22.652-13.324a3.5,3.5,0,0,0,1.238-3.361c-1.158-6.17-4.606-24.935-4.758-30.313-.143-5.048,5.521-8.9,8.014-10.35a3.44,3.44,0,0,0,1.621-2.176c.783-3.249,1.447-10.6-7.932-12.222a3.506,3.506,0,0,1-2.844-4.17c.793-3.885.54-9.6-6.839-11.709-7.5-2.141-12.219,2.374-14.619,5.835a3.5,3.5,0,0,1-4.342,1.159,2.77,2.77,0,0,0-3.1.556,3.449,3.449,0,0,1-5.045-.767c-2.186-3.219-6.159-6.432-12.885-4.256-11.935,3.862-11.365,17.622-6.99,25.1s17.077,2.558,23.09-2.4c4.572-3.769,11.533-1.514,14.607-.217A3.473,3.473,0,0,1,3727.579,7920.7Z"/><path class="cn" d="M3745.252,7942.857s-7.063-13.362-2.392-17.557,12.584-3.51,12.371,6.939C3754.967,7945.236,3745.252,7942.857,3745.252,7942.857Z"/><path class="n" d="M3787.607,8123.576a67.474,67.474,0,0,0,6.9-.326l.5-.056,20.566-95.887a.7.7,0,0,0-1.369-.294l-20.353,94.892c-3.061.269-19.405,1.354-28.033-4.758l17.816-83.308-3.719-7.007a.7.7,0,0,0-1.238.656l3.481,6.558-17.9,83.69.358.269C3770.857,8122.689,3780.9,8123.576,3787.607,8123.576Z"/><path class="n" d="M3171.054,8415.924a3.306,3.306,0,0,1-1.415-.32,4.051,4.051,0,0,1-1.875-5.138l75.152-190.686a3.477,3.477,0,0,1,4.707-2.047,4.054,4.054,0,0,1,1.876,5.139l-75.152,190.685A3.588,3.588,0,0,1,3171.054,8415.924Z"/><path class="n" d="M3255.716,8415.924a3.587,3.587,0,0,1-3.294-2.367l-75.152-190.685a4.053,4.053,0,0,1,1.876-5.139,3.478,3.478,0,0,1,4.708,2.047l75.152,190.686a4.052,4.052,0,0,1-1.876,5.138A3.3,3.3,0,0,1,3255.716,8415.924Z"/><path class="n" d="M3681.092,8415.924a3.3,3.3,0,0,1-1.414-.32,4.052,4.052,0,0,1-1.876-5.138l75.152-190.686a3.478,3.478,0,0,1,4.708-2.047,4.052,4.052,0,0,1,1.875,5.139l-75.152,190.685A3.588,3.588,0,0,1,3681.092,8415.924Z"/><path class="n" d="M3765.753,8415.924a3.587,3.587,0,0,1-3.293-2.367l-75.152-190.685a4.054,4.054,0,0,1,1.875-5.139,3.478,3.478,0,0,1,4.708,2.047l75.152,190.686a4.051,4.051,0,0,1-1.875,5.138A3.3,3.3,0,0,1,3765.753,8415.924Z"/><path class="co" d="M3670.187,8206.312l108.848,0V8195.08H3670.187C3672.517,8195.08,3672.517,8206.312,3670.187,8206.312Z"/><path class="cp" d="M3778.185,8206.312a.852.852,0,0,0,.85-.849v-9.534a.852.852,0,0,0-.85-.849H3667.718a.853.853,0,0,1-.85-.85v-.841a.852.852,0,0,1,.85-.85h117.549a4.7,4.7,0,0,1,4.7,4.7v7.179a4.431,4.431,0,0,1-4.432,4.432H3667.718a.852.852,0,0,1-.85-.849v-.841a.854.854,0,0,1,.85-.851Z"/><path class="n" d="M3794.812,8213.885a3.31,3.31,0,0,0-1.357-3.536,8.081,8.081,0,0,0-4.976-1.556h-652.2a8.823,8.823,0,0,0-6.254,2.271,3.546,3.546,0,0,0-.485,4.718l7.068,10.146c1.618,2.324,5.125,3.812,8.983,3.812H3784c3.59,0,6.675-1.688,7.357-4.026Z"/><circle class="cq" cx="47.259" cy="47.259" r="47.259" transform="translate(2542.529 8061.22) rotate(-22.5)"/><circle class="f" cx="45.687" cy="45.687" r="45.687" transform="translate(2539.664 8086.796) rotate(-45)"/><path class="cr" d="M2566.6,8069.737a1.919,1.919,0,0,1-1.712-2.783,44.164,44.164,0,0,1,47.339-23.535,1.918,1.918,0,1,1-.688,3.774,40.765,40.765,0,0,0-7.264-.652,40.092,40.092,0,0,0-35.961,22.141A1.917,1.917,0,0,1,2566.6,8069.737Z"/><circle class="cs" cx="38.669" cy="38.669" r="38.669" transform="translate(2550.585 8087.792) rotate(-45)"/><path class="f" d="M2601.476,8116.538v-4.207a34.28,34.28,0,0,1-11.8-2.559,2.433,2.433,0,0,1-1.345-2.875l1.068-3.919a2.454,2.454,0,0,1,3.33-1.6,28.472,28.472,0,0,0,10.9,2.295c4.224,0,7.374-1.432,7.374-4.368,0-2.648-2.434-4.223-8.3-5.8-8.376-2.291-14.391-5.943-14.391-13.317,0-6.659,4.869-11.742,13.317-13.1v-4.207a2.453,2.453,0,0,1,2.452-2.452h2.471a2.452,2.452,0,0,1,2.452,2.452v3.777a31.314,31.314,0,0,1,9.356,1.68,2.439,2.439,0,0,1,1.524,2.945l-.983,3.624a2.445,2.445,0,0,1-3.227,1.651,25.516,25.516,0,0,0-9.176-1.666c-5.012,0-6.444,2.076-6.444,3.937,0,2.291,3.007,3.866,9.522,5.871,9.308,2.792,13.174,6.659,13.174,13.6,0,6.372-4.725,12.1-13.89,13.532v4.708a2.45,2.45,0,0,1-2.451,2.451h-2.472A2.45,2.45,0,0,1,2601.476,8116.538Z"/><circle class="cq" cx="82.269" cy="82.269" r="82.269" transform="translate(2644.413 8098.782) rotate(-80.783)"/><circle class="f" cx="79.534" cy="79.534" r="79.534" transform="translate(2649.002 8098.486) rotate(-82.027)"/><path class="cr" d="M2673.214,7999.633a1.919,1.919,0,0,1-1.711-2.783,75.021,75.021,0,0,1,67.3-41.434,76,76,0,0,1,13.589,1.223,1.919,1.919,0,1,1-.688,3.775,72.052,72.052,0,0,0-12.9-1.16,71.2,71.2,0,0,0-63.869,39.324A1.919,1.919,0,0,1,2673.214,7999.633Z"/><circle class="cs" cx="67.315" cy="67.315" r="67.315" transform="translate(2673.215 7965.17)"/><path class="f" d="M2733.925,8082.529v-7.324a59.71,59.71,0,0,1-20.55-4.455,4.237,4.237,0,0,1-2.341-5l1.861-6.822a4.27,4.27,0,0,1,5.8-2.794,49.575,49.575,0,0,0,18.973,4c7.354,0,12.838-2.493,12.838-7.6,0-4.611-4.238-7.353-14.458-10.1-14.582-3.988-25.052-10.345-25.052-23.182,0-11.592,8.476-20.441,23.182-22.808v-7.324a4.268,4.268,0,0,1,4.268-4.268h4.3a4.268,4.268,0,0,1,4.267,4.268v6.575a54.485,54.485,0,0,1,16.288,2.925,4.246,4.246,0,0,1,2.653,5.126l-1.711,6.309a4.255,4.255,0,0,1-5.618,2.874,44.426,44.426,0,0,0-15.974-2.9c-8.725,0-11.217,3.614-11.217,6.855,0,3.988,5.234,6.73,16.576,10.22,16.2,4.861,22.933,11.591,22.933,23.68,0,11.093-8.226,21.064-24.179,23.557v8.2a4.267,4.267,0,0,1-4.268,4.267h-4.3A4.267,4.267,0,0,1,2733.925,8082.529Z"/><circle class="cq" cx="84.654" cy="84.654" r="84.654" transform="translate(2682.565 8254.133) rotate(-64.33)"/><circle class="f" cx="81.839" cy="81.839" r="81.839" transform="matrix(0.433, -0.901, 0.901, 0.433, 2686.322, 8252.815)"/><path class="cr" d="M2728.051,8182.428a1.918,1.918,0,0,1-1.711-2.783,77.135,77.135,0,0,1,69.2-42.606,78.283,78.283,0,0,1,13.972,1.258,1.918,1.918,0,1,1-.686,3.774,74.437,74.437,0,0,0-13.286-1.194,73.324,73.324,0,0,0-65.771,40.5A1.918,1.918,0,0,1,2728.051,8182.428Z"/><circle class="cs" cx="69.267" cy="69.267" r="69.267" transform="matrix(0.23, -0.973, 0.973, 0.23, 2713.991, 8267.788)"/><path class="f" d="M2790.522,8267.782v-7.536a61.446,61.446,0,0,1-21.145-4.584,4.36,4.36,0,0,1-2.41-5.15l1.915-7.019a4.393,4.393,0,0,1,5.964-2.875,51.026,51.026,0,0,0,19.523,4.109c7.567,0,13.21-2.564,13.21-7.822,0-4.745-4.36-7.566-14.877-10.389-15-4.1-25.778-10.644-25.778-23.854,0-11.928,8.721-21.033,23.854-23.469v-7.537a4.391,4.391,0,0,1,4.391-4.391h4.428a4.391,4.391,0,0,1,4.391,4.391v6.767a56.049,56.049,0,0,1,16.76,3.009,4.37,4.37,0,0,1,2.73,5.275l-1.76,6.492a4.38,4.38,0,0,1-5.781,2.957,45.715,45.715,0,0,0-16.438-2.985c-8.977,0-11.542,3.719-11.542,7.054,0,4.1,5.386,6.926,17.057,10.517,16.672,5,23.6,11.927,23.6,24.367,0,11.414-8.464,21.674-24.879,24.239v8.434a4.391,4.391,0,0,1-4.391,4.391h-4.429A4.391,4.391,0,0,1,2790.522,8267.782Z"/><circle class="cq" cx="62.025" cy="62.025" r="62.025" transform="translate(2832.976 8150.479) rotate(-80.783)"/><circle class="f" cx="59.963" cy="59.963" r="59.963" transform="translate(2825.79 8131.642) rotate(-67.5)"/><path class="cr" d="M2854.689,8076.2a1.919,1.919,0,0,1-1.711-2.783,57.028,57.028,0,0,1,51.157-31.5,57.7,57.7,0,0,1,10.33.931,1.918,1.918,0,1,1-.687,3.775,53.947,53.947,0,0,0-9.643-.868,53.212,53.212,0,0,0-47.731,29.39A1.918,1.918,0,0,1,2854.689,8076.2Z"/><circle class="cs" cx="50.751" cy="50.751" r="50.751" transform="translate(2848.87 8056.327) rotate(-7.018)"/><path class="f" d="M2900.462,8138.226V8132.7a45.016,45.016,0,0,1-15.493-3.359,3.194,3.194,0,0,1-1.765-3.773l1.4-5.143a3.22,3.22,0,0,1,4.37-2.107,37.376,37.376,0,0,0,14.3,3.012c5.544,0,9.678-1.88,9.678-5.732,0-3.477-3.194-5.544-10.9-7.611-10.994-3.007-18.887-7.8-18.887-17.478,0-8.739,6.39-15.41,17.478-17.2v-5.523a3.217,3.217,0,0,1,3.217-3.217h3.244a3.217,3.217,0,0,1,3.217,3.217v4.958a41.049,41.049,0,0,1,12.28,2.205,3.2,3.2,0,0,1,2,3.865l-1.29,4.757a3.209,3.209,0,0,1-4.236,2.166,33.495,33.495,0,0,0-12.044-2.186c-6.577,0-8.456,2.724-8.456,5.168,0,3.007,3.946,5.074,12.5,7.705,12.216,3.665,17.29,8.739,17.29,17.853,0,8.364-6.2,15.881-18.23,17.76v6.18a3.217,3.217,0,0,1-3.217,3.217h-3.244A3.217,3.217,0,0,1,2900.462,8138.226Z"/><path class="ct" d="M3198.378,7366.364c69.629-1.026,414.055-7.056,484.745-8.295a12.474,12.474,0,0,1,12.693,12.475v32.247a12.477,12.477,0,0,1-12.477,12.477h-484.77a12.478,12.478,0,0,1-12.478-12.477V7378.84A12.472,12.472,0,0,1,3198.378,7366.364Z"/><path class="l" d="M3286.165,7391.2h0a12.556,12.556,0,0,0,12.774,12.554l280.885-4.873a12.556,12.556,0,0,0,11.978-15.545l-1.278-5.211a12.558,12.558,0,0,0-12.648-9.558l-279.607,10.084A12.557,12.557,0,0,0,3286.165,7391.2Z"/><path class="cu" d="M3223.434,7392.945l-43.184,43.963a4.434,4.434,0,0,0,.311,6.5l.325.273a4.122,4.122,0,0,0,5.824-.525l39.543-47.693Z"/><path class="cv" d="M3267.794,7357.727c6.677,13.992.54,30.846-13.708,37.646s-31.212.97-37.89-13.021-.539-30.846,13.709-37.646S3261.117,7343.736,3267.794,7357.727Z"/><path class="cu" d="M3228.542,7341.85c-15.854,7.567-22.684,26.321-15.254,41.89s26.306,22.055,42.16,14.489,22.684-26.321,15.254-41.89S3244.4,7334.284,3228.542,7341.85Zm24.93,52.238a26.651,26.651,0,1,1,13.013-35.736A26.895,26.895,0,0,1,3253.472,7394.088Z"/></g></svg>